<svg width="20" height="20" viewBox="0 0 20 20" fill="none"
  xmlns="http://www.w3.org/2000/svg">
  <g clip-path="url(#clip0_4_2008)">
    <path d="M9.7266 5.2916C9.75789 5.29256 9.78938 5.29301 9.82067 5.29301C9.82073 5.29301 9.82073 5.29301 9.8208 5.29301C10.9314 5.29301 12.1366 4.66686 12.8907 3.69804C13.669 2.6994 14.0227 1.50145 13.861 0.411257C13.824 0.162273 13.6009 -0.0168026 13.3506 0.00125277C12.256 0.0779077 11.0169 0.74345 10.2672 1.65721C9.45159 2.65051 9.07789 3.86156 9.26763 4.89676C9.30856 5.12004 9.49972 5.28447 9.7266 5.2916ZM11.0123 2.26877C11.4772 1.70205 12.2298 1.2339 12.935 1.04615C12.9015 2.00508 12.3807 2.7846 12.1303 3.10587C11.6436 3.73119 10.8951 4.18116 10.181 4.29881C10.1952 3.34522 10.8036 2.52296 11.0123 2.26877Z" fill="white"/>
    <path d="M18.1586 14.5427C18.1076 14.42 18.0081 14.3238 17.8837 14.2769C15.8991 13.5286 15.2775 11.3778 15.84 9.81375C16.118 9.03801 16.665 8.40755 17.4218 7.99054C17.5463 7.92192 17.6342 7.80177 17.6619 7.66227C17.6896 7.52278 17.6542 7.37814 17.5653 7.26717C16.5595 6.01191 15.1297 5.26252 13.7406 5.26252C12.768 5.26252 12.1097 5.51221 11.5288 5.73247C11.101 5.89471 10.7315 6.03485 10.308 6.03485C9.83941 6.03485 9.41212 5.88179 8.91724 5.70452C8.33876 5.4973 7.68318 5.26245 6.86381 5.26245C5.28464 5.26245 3.68421 6.21746 2.68647 7.7557C2.31727 8.32788 2.05839 9.03467 1.91671 9.85731C1.51814 12.1976 2.19345 14.9862 3.7234 17.3173C4.59102 18.6364 5.68437 19.9868 7.21412 19.9998L7.24535 19.9999C7.88256 19.9999 8.31126 19.8084 8.72583 19.6233C9.16391 19.4276 9.57771 19.2428 10.3272 19.239L10.3519 19.239C11.0873 19.239 11.488 19.4228 11.9122 19.6174C12.3186 19.8039 12.7389 19.9967 13.3744 19.9967L13.4035 19.9965C14.9027 19.9838 16.0381 18.5633 16.9519 17.1742C17.5136 16.3137 17.7275 15.874 18.1534 14.9251C18.2078 14.8038 18.2096 14.6654 18.1586 14.5427ZM16.1457 16.6459C15.4178 17.7525 14.4473 19.0238 13.3948 19.0328L13.3743 19.0329C12.9493 19.0329 12.6689 18.9042 12.314 18.7414C11.8612 18.5337 11.2978 18.2752 10.3518 18.2752L10.322 18.2752C9.36984 18.28 8.79471 18.5369 8.33266 18.7433C7.96635 18.907 7.67701 19.0362 7.24529 19.0362L7.22293 19.0361C6.13948 19.0268 5.2139 17.8296 4.52882 16.7881C3.12937 14.6559 2.50804 12.1255 2.86664 10.0201C2.98602 9.32683 3.19787 8.74084 3.49569 8.27924C4.31704 7.01292 5.60765 6.22626 6.86381 6.22626C7.51573 6.22626 8.03863 6.41356 8.59224 6.61185C9.12311 6.80204 9.67203 6.99866 10.308 6.99866C10.9081 6.99866 11.3974 6.81309 11.8706 6.63363C12.3986 6.43335 12.9447 6.22626 13.7407 6.22626C14.6877 6.22626 15.6713 6.68227 16.4529 7.46649C15.746 7.98181 15.2255 8.67164 14.933 9.48798C14.1701 11.6094 15.1248 13.9615 17.0748 14.9699C16.7849 15.5985 16.579 15.9821 16.1457 16.6459Z" fill="white"/>
  </g>
  <defs>
    <clipPath id="clip0_4_2008">
      <rect width="20" height="20" fill="white"/>
    </clipPath>
  </defs>
</svg>
