<svg width="300" height="577" viewBox="0 0 300 577" fill="none" xmlns="http://www.w3.org/2000/svg">
<path d="M251.709 86.1944C251.11 86.1944 250.524 86.3722 250.026 86.7053C249.528 87.0385 249.14 87.5119 248.911 88.0657C248.682 88.6195 248.623 89.2288 248.741 89.8164C248.858 90.4039 249.148 90.9434 249.572 91.3664C249.996 91.7894 250.537 92.0769 251.125 92.1925C251.713 92.3082 252.322 92.2467 252.874 92.016C253.427 91.7852 253.899 91.3956 254.231 90.8963C254.562 90.3971 254.738 89.8107 254.736 89.2115C254.736 88.8144 254.658 88.4212 254.505 88.0545C254.353 87.6877 254.13 87.3547 253.849 87.0744C253.567 86.7941 253.234 86.572 252.866 86.421C252.499 86.27 252.106 86.193 251.709 86.1944Z" fill="#E6E6E7"/>
<path d="M251.709 87.5572C251.38 87.5572 251.057 87.6551 250.784 87.8384C250.51 88.0218 250.296 88.2824 250.171 88.5872C250.045 88.892 250.013 89.2272 250.078 89.5504C250.143 89.8736 250.302 90.1702 250.536 90.4026C250.77 90.6349 251.067 90.7926 251.391 90.8557C251.715 90.9188 252.05 90.8843 252.353 90.7567C252.657 90.6291 252.917 90.4141 253.098 90.139C253.28 89.8639 253.376 89.5411 253.374 89.2114C253.374 88.9933 253.331 88.7773 253.247 88.5759C253.163 88.3746 253.04 88.1917 252.886 88.038C252.731 87.8842 252.547 87.7626 252.345 87.6801C252.144 87.5976 251.927 87.5558 251.709 87.5572Z" fill="#8BB8DC"/>
<path d="M245.728 114.004C244.376 110.03 234.628 106.982 228.928 114.92C223.227 122.858 222.509 138.568 228.189 145.206C233.869 151.843 238.717 152.062 242.597 149.586C247.881 146.236 241.317 140.701 241.889 131.327C242.462 121.953 248.173 121.183 245.728 114.004Z" fill="#8BB8DC"/>
<path d="M173.201 405.554H155.818V421.399H173.201V405.554Z" fill="#78ABCE"/>
<path d="M173.201 466.021H155.818V473.939H173.201V466.021Z" fill="#78ABCE"/>
<path d="M170.579 421.398H158.449V466.021H170.579V421.398Z" fill="#8BB8DC"/>
<path d="M219.128 473.615H109.891V482.407H219.128V473.615Z" fill="#78ABCE"/>
<path d="M109.891 476.082C108.269 476.082 106.684 476.563 105.336 477.464C103.988 478.365 102.938 479.645 102.317 481.143C101.697 482.641 101.535 484.289 101.851 485.88C102.167 487.47 102.948 488.931 104.094 490.077C105.241 491.224 106.701 492.005 108.291 492.321C109.881 492.637 111.53 492.475 113.028 491.855C114.525 491.234 115.806 490.183 116.706 488.835C117.607 487.487 118.088 485.902 118.088 484.28C118.089 483.203 117.878 482.137 117.467 481.141C117.055 480.146 116.451 479.242 115.69 478.48C114.928 477.719 114.024 477.115 113.029 476.703C112.034 476.292 110.967 476.081 109.891 476.082Z" fill="#629ABF"/>
<path d="M219.128 476.082C217.506 476.08 215.92 476.559 214.571 477.459C213.221 478.358 212.169 479.638 211.547 481.136C210.925 482.634 210.761 484.282 211.076 485.873C211.391 487.464 212.171 488.926 213.317 490.074C214.463 491.221 215.924 492.003 217.514 492.32C219.105 492.638 220.753 492.476 222.252 491.856C223.75 491.235 225.031 490.185 225.932 488.836C226.833 487.488 227.314 485.902 227.314 484.28C227.314 482.108 226.452 480.024 224.917 478.487C223.382 476.95 221.3 476.085 219.128 476.082Z" fill="#629ABF"/>
<path d="M95.7955 99.5532H44.3027V118.28H95.7955V99.5532Z" fill="#8BB8DC"/>
<path d="M88.3868 35.9644H71.6074V88.1089H88.3868V35.9644Z" fill="#A0CFE6"/>
<path d="M88.3868 35.9644H71.6074V42.6021H88.3868V35.9644Z" fill="#8BB8DC"/>
<path d="M88.3868 83.042H71.6074V88.1087H88.3868V83.042Z" fill="#8BB8DC"/>
<path d="M245.75 200.388C215.177 181.848 174.711 143.041 152.346 140.045C127.047 136.633 52.9698 80.805 55.893 114.202C65.4633 223.755 25.9023 208.877 25.9023 208.877C25.9023 208.877 60.6677 235.751 96.3485 237.041C132.029 238.331 172.828 242.565 209.06 237.8C245.293 233.035 274.097 206.589 274.097 206.589C274.097 206.589 263.726 211.281 245.75 200.388Z" fill="#601402"/>
<path d="M120.002 236.687L54.8398 261.188L94.4632 507.616L208.007 507.689L245.155 261.24L183.655 239.038L120.002 236.687Z" fill="#0A75C4"/>
<path d="M62.8829 439.21L57.6816 439.45C58.4932 439.871 59.4013 440.07 60.3144 440.028C61.2275 439.986 62.1134 439.704 62.8829 439.21Z" fill="white"/>
<path d="M36.7511 261.178C15.509 269.429 1.90248 344.243 0.0820312 415.156L6.47961 441.707L57.6186 439.45C54.0194 437.369 50.2536 429.285 52.5422 402.641C56.516 356.322 55.3509 337.814 55.3509 337.814L101.705 237.645C101.705 237.645 51.5123 255.446 36.7511 261.178Z" fill="white"/>
<path d="M263.245 261.178C248.681 254.936 198.291 237.645 198.291 237.645L244.645 337.814C244.645 337.814 245.685 356.322 249.7 402.641C251.947 428.754 251.24 437.046 250.189 439.314L293.516 441.707L299.914 415.156C298.093 344.243 282.375 269.429 263.245 261.178Z" fill="white"/>
<path d="M250.191 439.314L248.381 439.21C248.381 439.21 249.39 441.074 250.191 439.314Z" fill="#F0F1F1"/>
<path d="M54.3418 551.812L55.7253 577H249.359L250.243 552.052L54.3418 551.812Z" fill="#343444"/>
<path d="M145.519 286.512L157.659 287.198L190.448 228.541L113.021 232.765L145.519 286.512Z" fill="#F7A96D"/>
<path d="M101.891 239.725L135.335 295.137L152.52 286.314L106.083 213.664L101.891 239.725Z" fill="#035693"/>
<path d="M150.857 286.293L168.022 295.147L199.396 241.858L197.305 213.695L150.857 286.293Z" fill="#035693"/>
<path d="M106.074 237.645L58.8668 256.08L44.3032 315.965C44.3032 315.965 82.8968 400.612 65.4725 440.979C47.6737 482.22 42.8052 535.353 42.2539 577H154.165L157.286 427.048L106.074 237.645Z" fill="white"/>
<path d="M92.0699 237.634L79.7637 288.301L99.643 307.819L97.8329 323.154L157.284 427.048L103.43 226.814L92.0699 237.634Z" fill="white"/>
<path d="M65.8262 505.14L108.133 505.15V499.584L65.8262 499.553V505.14Z" fill="#D0D2D3"/>
<path d="M265.223 314.529L245.458 254.634L198.251 236.177L146.914 425.529L146.987 576.958H260.531C259.147 535.935 253.322 483.135 235.419 440.302C211.14 382.28 265.223 314.529 265.223 314.529Z" fill="white"/>
<path d="M157.681 447.273C156.858 447.273 156.053 447.518 155.369 447.975C154.685 448.432 154.151 449.082 153.836 449.842C153.521 450.603 153.439 451.44 153.599 452.247C153.76 453.054 154.156 453.796 154.738 454.378C155.32 454.96 156.062 455.356 156.869 455.517C157.676 455.677 158.513 455.595 159.273 455.28C160.033 454.965 160.683 454.431 161.14 453.747C161.598 453.063 161.842 452.258 161.842 451.435C161.842 450.331 161.403 449.273 160.623 448.492C159.843 447.712 158.784 447.273 157.681 447.273Z" fill="#D0D2D3"/>
<path d="M157.659 491.199C156.836 491.199 156.032 491.443 155.347 491.901C154.663 492.358 154.13 493.008 153.815 493.768C153.5 494.529 153.417 495.365 153.578 496.173C153.739 496.98 154.135 497.721 154.717 498.303C155.299 498.885 156.04 499.282 156.847 499.442C157.654 499.603 158.491 499.521 159.251 499.206C160.012 498.891 160.662 498.357 161.119 497.673C161.576 496.988 161.82 496.184 161.82 495.361C161.82 494.257 161.382 493.199 160.601 492.418C159.821 491.638 158.763 491.199 157.659 491.199Z" fill="#D0D2D3"/>
<path d="M157.94 537.86C157.117 537.86 156.313 538.104 155.629 538.562C154.944 539.019 154.411 539.669 154.096 540.429C153.781 541.19 153.699 542.027 153.859 542.834C154.02 543.641 154.416 544.383 154.998 544.965C155.58 545.547 156.321 545.943 157.129 546.104C157.936 546.264 158.772 546.182 159.533 545.867C160.293 545.552 160.943 545.018 161.4 544.334C161.857 543.65 162.101 542.845 162.101 542.022C162.101 540.918 161.663 539.86 160.883 539.079C160.102 538.299 159.044 537.86 157.94 537.86Z" fill="#D0D2D3"/>
<path d="M193.393 505.182L235.7 505.203V499.616L193.393 499.605V505.182Z" fill="#D0D2D3"/>
<path d="M210.879 237.676L199.519 226.845L145.52 427.048L211.316 323.196L203.243 307.85L223.144 288.343L210.879 237.676Z" fill="white"/>
<path d="M105.553 420.504L101.787 434.789L243.21 462.369L239.049 445.879L105.553 420.504Z" fill="#D0D2D3"/>
<path d="M73.2848 374.3C71.2043 378.889 78.7358 383.664 78.7358 383.664C78.7358 383.664 60.7081 378.774 54.2377 380.72C47.7673 382.665 44.1368 390.707 43.2422 396.326C42.3476 401.944 48.0482 412.452 57.9306 415.979C67.8131 419.506 98.0117 423.886 100.893 420.39C103.775 416.894 108.602 389.178 108.602 389.178L84.5196 372.865C84.5196 372.865 75.3653 369.671 73.2848 374.3Z" fill="#FFBA7F"/>
<path d="M260.313 406.344L107.228 381.114L98.9062 428.754C98.9062 428.754 238.301 455.971 270.694 461.308C303.088 466.645 299.915 408.164 299.915 408.164L260.313 406.344Z" fill="white"/>
<path d="M60.8741 449.302L57.2852 462.931L201.943 435.111L199.686 420.504L60.8741 449.302Z" fill="#D0D2D3"/>
<path d="M210.828 384.985C193.217 383.799 182.949 389.636 182.949 389.636C182.949 389.636 187.797 417.414 190.657 420.9C193.518 424.385 206.761 410.163 216.664 406.625C226.567 403.088 236.158 404.545 242.254 403.775C247.934 403.098 226.962 386.057 210.828 384.985Z" fill="#FFBA7F"/>
<path d="M41.952 406.459L0.0816681 407.874C0.0816681 407.874 -3.03911 466.687 29.3025 461.339C61.6441 455.992 201.101 428.786 201.101 428.786L192.779 376.651L41.952 406.459Z" fill="white"/>
<path d="M65.0767 394.161C59.7818 394.223 53.301 393.121 51.3557 390.676C50.0346 389.406 49.0255 384.704 49.1504 378.482C49.1504 365.998 52.344 347.551 54.206 332.923L49.9098 332.372C48.0685 346.938 44.8853 365.384 44.8125 378.451C44.8125 385.037 45.3222 390.26 48.1309 393.578C52.292 397.896 59.3657 398.364 65.0455 398.489C67.8472 398.504 70.6473 398.348 73.43 398.021L72.8578 393.734C70.2749 394.031 67.6766 394.173 65.0767 394.161Z" fill="#BBBDBF"/>
<path d="M70.3297 391.727C67.3337 391.945 65.0347 393.724 65.1804 395.712C65.326 397.699 67.8434 399.145 70.829 398.937C73.8145 398.729 76.1239 396.939 75.9678 394.952C75.8118 392.965 73.284 391.519 70.3297 391.727Z" fill="#57585A"/>
<path d="M112.659 333.256C114.355 347.915 117.278 366.424 117.195 378.867C117.195 385.109 116.154 389.791 114.854 391.05C112.878 393.453 106.386 394.493 101.081 394.369C98.4834 394.342 95.8892 394.172 93.3104 393.859L92.707 398.135C95.4664 398.498 98.246 398.685 101.029 398.697C106.719 398.645 113.855 398.26 118.016 393.973C120.856 390.686 121.377 385.473 121.491 378.898C121.564 365.82 118.609 347.312 116.914 332.746L112.659 333.256Z" fill="#BBBDBF"/>
<path d="M95.889 391.872C92.9034 391.633 90.3548 393.048 90.1884 394.993C90.0219 396.939 92.2689 398.78 95.296 399.03C98.3232 399.28 100.809 397.854 100.976 395.909C101.142 393.963 98.8537 392.122 95.889 391.872Z" fill="#57585A"/>
<path d="M83.6877 290.673C64.1309 290.736 49.3592 310.867 49.2344 334.807H54.883C54.935 323.935 58.347 314.145 63.6523 307.226C68.9576 300.307 76.0418 296.25 83.6565 296.291C91.2712 296.333 98.2825 300.453 103.546 307.444C108.81 314.436 112.066 324.257 112.003 335.14H117.652C117.766 311.252 103.255 290.954 83.6877 290.673Z" fill="#57585A"/>
<path d="M89.5026 228.749C83.8428 235.994 79.9273 244.445 78.0597 253.448C77.3999 257.974 77.08 262.544 77.1027 267.118V272.414C77.3003 278.292 79.0584 293.326 79.1 293.471H84.3637C84.3637 293.471 82.512 279.197 82.5224 272.414V267.118C82.4915 262.876 82.7766 258.636 83.3754 254.436C85.0855 246.275 88.6442 238.616 93.778 232.047C98.5008 225.804 104.108 221.559 107.301 220.842L106.001 215.64C100.56 217.044 94.7871 221.934 89.5026 228.749Z" fill="#57585A"/>
<path d="M213.834 228.749C208.518 221.935 202.786 217.045 197.335 215.599L196.035 220.894C199.239 221.612 204.846 225.888 209.558 232.099C214.696 238.666 218.255 246.327 219.961 254.489C220.6 258.398 220.885 262.357 220.814 266.318C220.814 284.473 216.653 308.516 216.653 308.558L222 309.484C222 309.421 226.213 285.222 226.223 266.328C226.283 262.036 225.967 257.747 225.277 253.511C223.418 244.486 219.502 236.013 213.834 228.749Z" fill="#57585A"/>
<path d="M213.656 306.987C209.802 306.987 206.035 308.13 202.831 310.271C199.627 312.412 197.13 315.456 195.655 319.016C194.18 322.577 193.794 326.495 194.546 330.275C195.298 334.055 197.154 337.527 199.879 340.252C202.604 342.978 206.075 344.834 209.855 345.586C213.634 346.337 217.552 345.952 221.112 344.477C224.672 343.002 227.715 340.504 229.856 337.3C231.997 334.095 233.14 330.327 233.14 326.473C233.137 321.306 231.084 316.351 227.43 312.697C223.777 309.044 218.823 306.99 213.656 306.987Z" fill="#929597"/>
<path d="M213.657 335.857C218.839 335.857 223.04 331.656 223.04 326.473C223.04 321.29 218.839 317.088 213.657 317.088C208.474 317.088 204.273 321.29 204.273 326.473C204.273 331.656 208.474 335.857 213.657 335.857Z" fill="#D0D2D3"/>
<path d="M151.73 295.303C151.113 295.303 150.51 295.486 149.996 295.829C149.483 296.172 149.083 296.659 148.847 297.23C148.611 297.8 148.549 298.427 148.669 299.033C148.79 299.638 149.087 300.194 149.523 300.631C149.96 301.067 150.516 301.365 151.121 301.485C151.727 301.606 152.354 301.544 152.924 301.308C153.495 301.071 153.982 300.671 154.325 300.158C154.668 299.645 154.851 299.041 154.851 298.424C154.851 297.596 154.522 296.802 153.937 296.217C153.352 295.632 152.558 295.303 151.73 295.303Z" fill="#035693"/>
<path d="M151.73 324.527C151.113 324.527 150.51 324.71 149.996 325.053C149.483 325.396 149.083 325.884 148.847 326.454C148.611 327.024 148.549 327.652 148.669 328.257C148.79 328.863 149.087 329.419 149.523 329.856C149.96 330.292 150.516 330.589 151.121 330.71C151.727 330.83 152.354 330.768 152.924 330.532C153.495 330.296 153.982 329.896 154.325 329.383C154.668 328.869 154.851 328.266 154.851 327.649C154.851 326.821 154.522 326.027 153.937 325.442C153.352 324.856 152.558 324.527 151.73 324.527Z" fill="#035693"/>
<path d="M151.73 353.752C151.113 353.752 150.51 353.935 149.996 354.278C149.483 354.621 149.083 355.108 148.847 355.679C148.611 356.249 148.549 356.877 148.669 357.482C148.79 358.087 149.087 358.644 149.523 359.08C149.96 359.517 150.516 359.814 151.121 359.934C151.727 360.055 152.354 359.993 152.924 359.757C153.495 359.52 153.982 359.12 154.325 358.607C154.668 358.094 154.851 357.49 154.851 356.873C154.851 356.045 154.522 355.251 153.937 354.666C153.352 354.081 152.558 353.752 151.73 353.752Z" fill="#035693"/>
<path d="M63.3174 120.621C54.652 123.336 56.6597 137.267 56.6493 142.469C56.6389 147.671 63.9311 166.086 68.7475 168.115C81.0329 173.234 81.0434 153.966 81.0434 153.966V131.576C81.0434 131.576 71.9619 117.895 63.3174 120.621Z" fill="#FFBA7F"/>
<path d="M239.589 120.85C230.934 118.155 221.842 131.774 221.842 131.774V154.205C221.842 154.205 221.842 174.076 234.127 168.364C238.902 166.138 246.236 147.931 246.236 142.729C246.236 137.527 248.244 123.555 239.589 120.85Z" fill="#FFBA7F"/>
<path d="M173.336 31.0845H130.322C99.1141 31.0845 73.7942 58.6237 73.7734 102.403V162.746C73.7734 206.536 116.206 237.228 130.27 242.055C145.083 247.122 159.584 246.404 173.284 242.055C188.066 237.363 229.822 206.578 229.843 162.798V102.455C229.854 58.6653 204.565 31.0949 173.336 31.0845Z" fill="#FFBA7F"/>
<path d="M116.975 130.037C111.857 130.037 107.717 134.49 107.717 140.004C107.717 145.518 111.878 149.95 116.975 149.95C122.072 149.95 126.233 145.497 126.233 140.004C126.233 134.51 122.176 130.047 116.975 130.037Z" fill="#221F1F"/>
<path d="M187.556 130.057C182.438 130.057 178.287 134.52 178.287 140.024C178.287 145.528 182.448 149.97 187.545 149.97C192.643 149.97 196.804 145.517 196.804 140.024C196.804 134.531 192.663 130.057 187.556 130.057Z" fill="#221F1F"/>
<path d="M203.317 111.038C188.057 107.564 181.326 111.538 178.133 112.079C175.345 112.599 166.451 115.866 167.803 118.321C170.362 122.909 181.233 117.905 185.716 116.573C194.579 113.952 200.363 112.016 216.851 120.142C219.421 121.422 209.559 112.453 203.317 111.038Z" fill="#601402"/>
<path d="M130.496 112.121C127.324 111.538 120.583 107.564 105.322 111.08C99.0807 112.495 89.2607 121.484 91.7989 120.215C108.287 112.089 114.071 114.025 122.934 116.646C127.407 117.978 138.288 122.982 140.847 118.394C142.179 115.908 133.274 112.693 130.496 112.121Z" fill="#601402"/>
<path d="M123.799 193.23C128.303 203.28 134.95 219.687 155.069 219.656C176.155 219.656 189.21 185 189.21 185C162.611 198.557 147.444 200.18 123.799 193.23Z" fill="#D15C58"/>
<path d="M129.105 194.665C130.78 200.616 138.551 203.061 154.269 201.865C175.074 200.263 179.704 194.749 182.283 188.34C165.504 196.653 142.618 197.828 129.105 194.665Z" fill="white"/>
<path d="M154.767 209.45C154.767 209.45 150.835 206.1 146.175 206.1C141.514 206.1 132.766 209.221 132.766 209.221C136.791 215.182 144.156 219.49 154.465 219.552C167.51 219.614 175.447 208.285 175.447 208.285C175.447 208.285 167.313 206.204 161.654 206.089C158.023 206.089 154.767 209.45 154.767 209.45Z" fill="#F88976"/>
<path d="M164.151 172.484C156.1 179.705 144.678 177.52 141.266 172.484C141.266 172.484 144.626 185.458 152.708 185.052C160.791 184.647 172.213 165.264 164.151 172.484Z" fill="#F69D5E"/>
<path d="M141.547 132.523C141.547 132.523 141.547 150.303 131.145 155.953C122.823 160.458 99.6041 160 93.2481 153.622C86.8922 147.245 84.1875 130.317 84.1875 130.317" stroke="#221F1F" stroke-width="2.66" stroke-miterlimit="10"/>
<path d="M84.8613 132.024C84.8613 132.024 107.82 114.971 143.449 132.897" stroke="#221F1F" stroke-width="5.75" stroke-miterlimit="10" stroke-linecap="round"/>
<path d="M85.9143 134.937L65.4629 119.903" stroke="#221F1F" stroke-width="5.2" stroke-miterlimit="10"/>
<path d="M163.133 132.523C163.133 132.523 163.133 150.387 173.535 156.067C181.857 160.583 205.18 160.135 211.578 153.726C217.975 147.318 220.669 130.307 220.669 130.307" stroke="#221F1F" stroke-width="2.66" stroke-miterlimit="10"/>
<path d="M161.229 132.908C201.892 114.181 220.461 132.575 220.461 132.575" stroke="#221F1F" stroke-width="5.77" stroke-miterlimit="10" stroke-linecap="round"/>
<path d="M218.961 134.937L239.433 119.903" stroke="#221F1F" stroke-width="5.2" stroke-miterlimit="10"/>
<path d="M142.67 137.038C142.67 137.038 148.651 134.167 152.771 134.167C156.007 134.255 159.184 135.061 162.071 136.528" stroke="#221F1F" stroke-width="3.85" stroke-miterlimit="10" stroke-linecap="square"/>
<path d="M249.42 70.2555C237.385 23.8331 186.943 5.80307 178.756 3.7639C142.981 -5.11065 123.216 4.49218 123.216 4.49218C123.216 4.49218 97.9069 11.9622 91.4677 28.2236C73.6377 28.5045 64.8476 41.9255 58.1795 51.4972C31.3825 90.2102 44.7498 123.544 50.6689 174.118C54.4242 206.172 30.6127 206.37 25.8691 208.867C25.8691 208.867 73.128 227.781 77.3307 222.996C82.3239 217.325 58.3772 189.401 59.0221 161.966C59.1262 157.555 87.7228 125.552 101.808 67.6857C101.808 67.6857 131.258 103.964 198.261 101.311C189.845 92.2702 186.682 74.0009 186.682 74.0009C186.682 74.0009 206.447 102.643 226.712 117.864C237.353 169.051 206.562 224.119 219.731 221.706C234.118 219.073 246.497 215.807 274.064 206.547C211.576 193.261 271.973 157.035 249.42 70.2555Z" fill="#601402"/>
</svg>
