<svg width="41" height="40" viewBox="0 0 41 40" fill="none" xmlns="http://www.w3.org/2000/svg">
<ellipse cx="20.5838" cy="20" rx="19.8611" ry="20" fill="#E6F5F6"/>
<path d="M28.3272 15.5206C27.7506 15.7786 27.1296 15.9524 26.4786 16.0314C27.144 15.6298 27.6526 14.9953 27.8944 14.2383C27.2721 14.6095 26.5831 14.8794 25.8497 15.0243C25.264 14.3936 24.426 14 23.5017 14C21.4229 14 19.8959 15.9524 20.3653 17.9798C17.6917 17.8442 15.3188 16.554 13.7316 14.5937C12.8884 16.0498 13.295 17.9561 14.7279 18.9211C14.201 18.904 13.7055 18.7579 13.2714 18.5157C13.2361 20.0165 14.3056 21.4212 15.8535 21.7345C15.4012 21.8583 14.9044 21.8873 14.3997 21.7898C14.8089 23.0774 15.9999 24.0134 17.4067 24.0398C16.0509 25.1088 14.3474 25.5867 12.6387 25.3839C14.0637 26.3042 15.7541 26.84 17.5714 26.84C23.5487 26.84 26.9244 21.7569 26.7204 17.1978C27.3506 16.7423 27.8958 16.1709 28.3272 15.5206Z" fill="#009DA9"/>
</svg>
