<svg width="710" height="710" viewBox="0 0 710 710" fill="none" xmlns="http://www.w3.org/2000/svg">
<rect width="710" height="710" fill="#009DA9" fill-opacity="0.65"/>
<g clip-path="url(#clip0_1758_12691)">
<path d="M593.579 463.63C581.82 451.861 570.059 440.092 558.296 428.323C557.627 427.655 556.938 426.754 555.907 427.335C554.68 427.948 553.702 428.966 553.14 430.217C553.044 431.394 553.717 431.846 554.239 432.366C563.611 441.739 572.986 451.108 582.365 460.474C584.859 462.966 587.356 465.454 589.857 467.938C590.393 468.472 590.956 469.128 591.786 468.844C593.056 468.327 594.087 467.357 594.681 466.123C595.282 465.047 594.269 464.324 593.582 463.634" fill="#009DA9" fill-opacity="0.5"/>
<path d="M420.573 95.7075C420.416 88.8541 420.511 81.9952 420.51 75.1387C420.51 73.8991 420.087 72.6422 419.064 72.2216C417.135 71.4308 415.442 72.8493 415.441 75.0046C415.432 87.5391 415.431 100.074 415.436 112.609H415.148C415.148 117.54 415.148 122.471 415.148 127.402C415.148 128.06 415.065 128.75 415.69 129.206C416.701 129.94 417.726 130.509 419.065 129.945C419.64 129.751 420.13 129.362 420.45 128.846C420.77 128.329 420.9 127.718 420.817 127.116C420.654 116.648 420.812 106.178 420.572 95.709" fill="#009DA9" fill-opacity="0.5"/>
<path d="M420.775 456.363C420.798 456.08 420.748 455.795 420.627 455.537C420.507 455.28 420.322 455.058 420.089 454.894C419.049 454.188 418.026 453.717 416.689 454.35C415.398 454.958 415.139 455.866 415.149 457.174C415.274 473.941 415.375 490.709 415.452 507.478C415.456 508.184 415.403 508.89 415.46 509.591C415.458 509.916 415.522 510.238 415.648 510.537C415.775 510.836 415.961 511.106 416.195 511.331C416.429 511.557 416.707 511.732 417.011 511.846C417.315 511.961 417.639 512.012 417.964 511.997C419.542 512.091 420.495 511.011 420.506 509.085C420.595 494.23 420.68 479.375 420.761 464.52C420.761 464.009 420.703 463.496 420.673 462.984C420.706 460.778 420.74 458.573 420.775 456.368" fill="#009DA9" fill-opacity="0.5"/>
<path d="M281.756 428.771C280.134 426.745 279.267 426.725 277.456 428.535C265.969 440.028 254.482 451.521 242.996 463.014C240.453 465.559 240.456 465.575 242.996 468.102C244.021 469.122 244.769 469.2 245.777 468.197C248.332 465.652 250.833 463.055 253.357 460.479C253.735 460.204 254.099 459.909 254.446 459.595C263.622 450.434 272.792 441.265 281.957 432.091C282.3 431.747 282.83 431.473 282.7 430.836C282.996 429.873 282.218 429.357 281.754 428.776" fill="#009DA9" fill-opacity="0.5"/>
<path d="M592.799 115.92C592.652 115.733 592.465 115.581 592.252 115.474C592.039 115.368 591.806 115.31 591.568 115.304C591.33 115.298 591.094 115.345 590.876 115.442C590.659 115.538 590.465 115.681 590.309 115.86C588.605 117.539 586.816 119.134 585.279 120.978C585.014 121.164 584.759 121.365 584.517 121.581C574.373 131.711 564.231 141.844 554.092 151.98C553.88 152.166 553.686 152.371 553.513 152.594C552.93 153.452 552.837 154.242 553.899 154.826C555.41 157.43 556.546 157.596 558.621 155.52C570.048 144.087 581.475 132.654 592.902 121.221C595.492 118.632 595.477 118.422 592.799 115.92Z" fill="#009DA9" fill-opacity="0.5"/>
<path d="M281.218 313.524C282.213 314.14 281.81 315.24 281.925 316.055C283.066 323.675 284.829 331.19 287.195 338.524C289.515 345.892 292.516 353.029 296.161 359.841C300.575 368.31 305.923 376.259 312.105 383.54C313.298 384.917 314.478 386.306 315.688 387.668C315.84 387.814 315.958 387.99 316.036 388.186C316.113 388.381 316.149 388.591 316.139 388.801C313.669 386.743 311.798 384.142 309.809 381.667C295.385 363.6 285.808 342.155 281.982 319.359C281.55 317.441 281.294 315.488 281.217 313.523" fill="#009DA9" fill-opacity="0.5"/>
<path d="M281.13 151.277C269.593 139.754 258.055 128.23 246.518 116.707C246.195 116.367 245.854 116.044 245.498 115.739C245.359 115.591 245.19 115.474 245.003 115.394C244.816 115.315 244.615 115.276 244.412 115.279C244.209 115.283 244.009 115.329 243.824 115.414C243.64 115.499 243.476 115.622 243.342 115.774C242.466 116.774 240.891 117.394 241.255 119.158C241.319 119.336 241.432 119.493 241.58 119.61C243.648 121.59 245.436 123.847 247.637 125.693C249.733 128.146 252.124 130.31 254.398 132.587C256.341 134.533 258.175 136.593 260.302 138.354C261.603 139.884 263.027 141.306 264.559 142.605C265.026 143.306 265.6 143.93 266.259 144.456C269.74 147.863 273.039 151.455 276.659 154.721C277.576 155.595 278.097 157.034 279.736 156.883C279.81 156.536 280.045 156.44 280.364 156.479C283.328 154.794 283.498 153.639 281.134 151.278" fill="#009DA9" fill-opacity="0.5"/>
<path d="M358.016 419.633C359.594 419.799 360.858 420.767 362.259 421.364C366.69 423.247 371.187 424.924 375.782 426.373C379.677 427.653 383.641 428.712 387.656 429.545C388.016 429.615 388.545 429.617 388.639 430.182C385.404 429.695 382.214 428.942 379.103 427.93C372.341 426.004 365.745 423.54 359.377 420.559C358.882 420.33 358.29 420.205 358.016 419.633Z" fill="#009DA9" fill-opacity="0.5"/>
<path d="M316.699 389.387C317.179 389.37 317.446 389.712 317.738 390.006C319.445 391.71 321.151 393.415 322.856 395.121C323.148 395.415 323.491 395.683 323.465 396.163C321.487 394.946 320.12 393.071 318.472 391.5C317.813 390.873 316.972 390.355 316.699 389.387Z" fill="#009DA9" fill-opacity="0.5"/>
<path d="M280.325 293.798C280.746 296.122 280.748 298.502 280.33 300.827C279.926 298.501 279.924 296.124 280.325 293.798Z" fill="#009DA9" fill-opacity="0.5"/>
<path d="M338.41 408.288C339.906 408.638 341.217 409.533 342.086 410.799C340.709 410.209 339.46 409.356 338.41 408.288Z" fill="#009DA9" fill-opacity="0.5"/>
<path d="M389.203 430.266C389.88 430.119 390.58 430.112 391.26 430.247C391.94 430.382 392.584 430.656 393.153 431.05C391.796 431.073 390.449 430.806 389.203 430.266Z" fill="#009DA9" fill-opacity="0.5"/>
<path d="M280.385 303.089C281.286 304.257 280.903 305.505 280.615 306.749C280.12 305.555 280.354 304.317 280.385 303.089Z" fill="#009DA9" fill-opacity="0.5"/>
<path d="M350.73 415.943C352.047 416.304 353.36 416.672 354.218 417.865C352.923 417.501 351.73 416.843 350.73 415.943Z" fill="#009DA9" fill-opacity="0.5"/>
<path d="M324.041 396.715C325.38 396.916 326.053 397.858 326.566 398.98C325.545 398.452 324.676 397.672 324.041 396.715Z" fill="#009DA9" fill-opacity="0.5"/>
<path d="M280.611 287.594C280.911 288.651 281.248 289.712 280.407 290.692C280.211 289.659 280.282 288.592 280.611 287.594Z" fill="#009DA9" fill-opacity="0.5"/>
<path d="M280.665 307.879C281.56 308.551 281.19 309.345 280.884 310.133C280.424 309.42 280.623 308.642 280.665 307.879Z" fill="#009DA9" fill-opacity="0.5"/>
<path d="M381.026 163.915C380.537 165.01 379.613 164.711 378.756 164.626C379.439 164.198 380.221 163.953 381.026 163.915Z" fill="#009DA9" fill-opacity="0.5"/>
<path d="M345.912 413.135C346.352 413.14 346.781 413.267 347.153 413.502C347.524 413.736 347.824 414.069 348.018 414.463C347.178 414.292 346.429 413.819 345.912 413.135Z" fill="#009DA9" fill-opacity="0.5"/>
<path d="M342.277 410.863C342.714 410.88 343.138 411.016 343.502 411.257C343.866 411.498 344.157 411.834 344.343 412.229C343.512 412.039 342.778 411.554 342.277 410.863Z" fill="#009DA9" fill-opacity="0.5"/>
<path d="M378.204 164.75C377.931 165.067 377.577 165.305 377.179 165.437C376.782 165.569 376.356 165.591 375.947 165.501C376.618 165.052 377.398 164.792 378.204 164.75Z" fill="#009DA9" fill-opacity="0.5"/>
<path d="M373.97 166.13C373.363 166.934 372.446 166.973 371.564 167.104C372.232 166.514 373.081 166.171 373.97 166.13Z" fill="#009DA9" fill-opacity="0.5"/>
<path d="M634.999 289.581C632.792 289.605 630.585 289.66 628.378 289.696C628.033 289.546 627.646 289.518 627.283 289.618L624.758 289.612C621.148 289.534 617.546 289.412 613.94 289.388C606.53 289.334 599.12 289.33 591.711 289.316C590.682 289.316 589.653 289.371 588.625 289.399C586.465 289.365 584.305 289.33 582.144 289.294C581.933 289.266 581.717 289.294 581.519 289.374C581.322 289.454 581.148 289.584 581.015 289.752C580.366 290.707 579.531 291.596 580.077 292.94C580.256 293.569 580.651 294.114 581.192 294.481C581.734 294.847 582.387 295.01 583.038 294.942C595.163 294.793 607.29 294.735 619.416 294.664C624.634 294.633 629.854 294.64 635.071 294.619C636.772 294.613 637.98 293.69 637.999 292.422C638.026 290.558 636.99 289.561 634.998 289.582" fill="#009DA9" fill-opacity="0.5"/>
<path d="M280.937 310.984C281.76 311.551 281.519 312.246 281.172 312.954C280.849 312.35 280.765 311.647 280.937 310.984Z" fill="#009DA9" fill-opacity="0.5"/>
<path d="M326.867 399.249C327.274 399.233 327.672 399.371 327.982 399.635C328.292 399.899 328.49 400.271 328.538 400.675C327.821 400.428 327.224 399.918 326.867 399.249Z" fill="#009DA9" fill-opacity="0.5"/>
<path d="M280.873 284.484C281.215 285.094 281.476 285.695 280.688 286.181C280.598 285.901 280.568 285.606 280.6 285.313C280.632 285.021 280.725 284.739 280.873 284.484Z" fill="#009DA9" fill-opacity="0.5"/>
<path d="M281.182 281.391C281.487 281.999 281.759 282.604 280.974 283.077C280.886 282.798 280.858 282.502 280.894 282.211C280.93 281.92 281.028 281.64 281.182 281.391Z" fill="#009DA9" fill-opacity="0.5"/>
<path d="M328.842 400.945C329.01 400.918 329.182 400.927 329.346 400.971C329.511 401.016 329.664 401.094 329.795 401.202C329.927 401.31 330.035 401.444 330.111 401.597C330.187 401.749 330.23 401.916 330.236 402.086C329.935 402.007 329.655 401.865 329.414 401.668C329.173 401.471 328.978 401.224 328.842 400.945Z" fill="#009DA9" fill-opacity="0.5"/>
<path d="M281.46 279.134C281.814 279.665 281.984 280.17 281.252 280.541C281.17 280.307 281.146 280.056 281.183 279.811C281.219 279.566 281.314 279.334 281.46 279.134Z" fill="#009DA9" fill-opacity="0.5"/>
<path d="M368.607 168.087C368.307 168.793 367.66 168.746 367.059 168.8C367.243 168.568 367.479 168.382 367.748 168.258C368.017 168.135 368.311 168.076 368.607 168.087Z" fill="#009DA9" fill-opacity="0.5"/>
<path d="M255.863 292.074C255.69 289.993 254.975 289.272 253.037 289.289C242.578 289.379 232.117 289.274 221.657 289.494C214.762 289.639 207.864 289.554 200.965 289.573C198.987 289.579 197.915 290.495 198.01 292.083C197.924 293.638 198.975 294.602 200.814 294.618C211.155 294.699 221.495 294.774 231.835 294.843C232.298 294.94 232.78 294.878 233.203 294.666L239.131 294.693C242.967 295.001 246.821 295.012 250.658 294.726C251.873 294.962 253.12 294.982 254.342 294.785C255.061 294.827 255.187 294.334 255.248 293.782C255.307 293.71 255.346 293.623 255.359 293.53C255.613 293.397 255.808 293.173 255.902 292.902C255.997 292.631 255.984 292.334 255.868 292.072" fill="#009DA9" fill-opacity="0.5"/>
<path d="M348.744 414.819C349.325 414.809 349.843 414.898 349.987 415.591C349.729 415.585 349.479 415.51 349.26 415.374C349.042 415.239 348.864 415.047 348.744 414.819Z" fill="#009DA9" fill-opacity="0.5"/>
<path d="M344.514 412.281C345.105 412.277 345.634 412.368 345.75 413.09C345.492 413.073 345.242 412.989 345.026 412.848C344.809 412.706 344.633 412.511 344.514 412.281Z" fill="#009DA9" fill-opacity="0.5"/>
<path d="M281.732 277.156C282.107 277.608 282.192 278.01 281.539 278.285C281.463 278.098 281.44 277.893 281.475 277.693C281.509 277.494 281.598 277.308 281.732 277.156Z" fill="#009DA9" fill-opacity="0.5"/>
<path d="M282.001 275.46C282.413 275.838 282.37 276.126 281.83 276.314C281.761 276.173 281.741 276.013 281.772 275.858C281.803 275.704 281.883 275.564 282.001 275.46Z" fill="#009DA9" fill-opacity="0.5"/>
<path d="M337.582 407.713C337.996 407.709 338.403 407.713 338.416 408.29C338.234 408.29 338.057 408.235 337.908 408.132C337.759 408.029 337.646 407.883 337.582 407.713Z" fill="#009DA9" fill-opacity="0.5"/>
<path d="M285.694 258.83C286.068 259.167 285.837 259.301 285.503 259.394C285.458 259.293 285.453 259.179 285.488 259.075C285.523 258.97 285.597 258.883 285.694 258.83Z" fill="#009DA9" fill-opacity="0.5"/>
<path d="M288.696 249.926C288.78 250.283 288.72 250.561 288.304 250.648C288.271 250.501 288.293 250.347 288.365 250.214C288.437 250.081 288.555 249.979 288.696 249.926Z" fill="#009DA9" fill-opacity="0.5"/>
<path d="M284.839 261.929C285.217 262.256 284.996 262.394 284.661 262.496C284.612 262.397 284.604 262.282 284.637 262.177C284.67 262.071 284.743 261.983 284.839 261.929Z" fill="#009DA9" fill-opacity="0.5"/>
<path d="M336.92 407.194C337.317 407.14 337.548 407.297 337.574 407.71C337.422 407.715 337.273 407.665 337.153 407.571C337.034 407.477 336.951 407.343 336.92 407.194Z" fill="#009DA9" fill-opacity="0.5"/>
<path d="M282.279 273.766C282.672 274.064 282.495 274.224 282.14 274.341C282.085 274.245 282.068 274.132 282.094 274.025C282.12 273.918 282.186 273.825 282.279 273.766Z" fill="#009DA9" fill-opacity="0.5"/>
<path d="M282.572 272.078C282.946 272.372 282.777 272.532 282.432 272.649C282.403 272.603 282.384 272.551 282.376 272.497C282.368 272.443 282.37 272.388 282.383 272.335C282.396 272.281 282.42 272.232 282.452 272.187C282.484 272.143 282.525 272.106 282.572 272.078Z" fill="#009DA9" fill-opacity="0.5"/>
<path d="M285.139 260.807C285.502 261.132 285.281 261.268 284.955 261.368C284.905 261.269 284.896 261.154 284.931 261.049C284.965 260.944 285.04 260.857 285.139 260.807Z" fill="#009DA9" fill-opacity="0.5"/>
<path d="M282.844 270.664C283.237 270.97 283.051 271.126 282.696 271.238C282.643 271.142 282.629 271.029 282.656 270.922C282.684 270.815 282.751 270.723 282.844 270.664Z" fill="#009DA9" fill-opacity="0.5"/>
<path d="M283.125 269.255C283.517 269.569 283.325 269.719 282.968 269.829C282.917 269.731 282.904 269.618 282.933 269.511C282.963 269.405 283.031 269.313 283.125 269.255Z" fill="#009DA9" fill-opacity="0.5"/>
<path d="M283.425 267.85C283.804 268.163 283.604 268.311 283.263 268.419C283.211 268.322 283.199 268.208 283.229 268.102C283.259 267.995 283.33 267.905 283.425 267.85Z" fill="#009DA9" fill-opacity="0.5"/>
<path d="M354.625 417.944C355.037 417.854 355.307 417.973 355.343 418.434C355.186 418.444 355.03 418.401 354.9 418.312C354.769 418.223 354.673 418.094 354.625 417.944Z" fill="#009DA9" fill-opacity="0.5"/>
<path d="M361.839 170.913C361.769 171.33 361.5 171.412 361.133 171.336C361.182 171.194 361.28 171.073 361.409 170.996C361.538 170.919 361.69 170.889 361.839 170.913Z" fill="#009DA9" fill-opacity="0.5"/>
<path d="M364.378 169.794C364.304 170.204 364.035 170.283 363.672 170.208C363.823 169.927 364.016 169.721 364.378 169.794Z" fill="#009DA9" fill-opacity="0.5"/>
<path d="M283.992 265.313C284.365 265.627 284.163 265.775 283.826 265.881C283.775 265.783 283.763 265.669 283.794 265.564C283.825 265.458 283.896 265.368 283.992 265.313Z" fill="#009DA9" fill-opacity="0.5"/>
<path d="M279.732 156.883C279.806 156.536 280.042 156.441 280.36 156.48C280.251 156.774 280.093 156.99 279.732 156.883Z" fill="#009DA9" fill-opacity="0.5"/>
<path d="M370.022 167.538C369.944 167.957 369.668 168.026 369.305 167.944C369.353 167.799 369.453 167.678 369.585 167.603C369.718 167.528 369.873 167.505 370.022 167.538Z" fill="#009DA9" fill-opacity="0.5"/>
<path d="M284.553 263.057C284.945 263.39 284.714 263.527 284.372 263.625C284.326 263.524 284.32 263.411 284.353 263.306C284.387 263.201 284.458 263.112 284.553 263.057Z" fill="#009DA9" fill-opacity="0.5"/>
<path d="M284.269 264.184C284.655 264.506 284.442 264.649 284.099 264.753C284.049 264.654 284.039 264.54 284.071 264.435C284.103 264.329 284.174 264.239 284.269 264.184Z" fill="#009DA9" fill-opacity="0.5"/>
<path d="M555.058 288.732C554.969 286.624 554.923 284.508 554.7 282.412C553.914 274.814 552.527 267.29 550.55 259.911C543.275 232.875 527.904 208.709 506.498 190.655C499.123 184.467 491.146 179.034 482.686 174.438C474.808 170.147 466.44 167.132 457.885 164.546C446.919 161.227 435.582 159.295 424.136 158.792C413.198 158.274 402.239 159.119 391.51 161.308C388.175 161.997 384.791 162.546 381.596 163.812L381.029 163.916C380.542 165.014 379.617 164.711 378.76 164.627L378.206 164.751C377.933 165.068 377.579 165.305 377.182 165.438C376.784 165.57 376.359 165.592 375.95 165.501L373.973 166.129C373.366 166.933 372.449 166.972 371.568 167.103C371.024 167.109 370.491 167.259 370.023 167.538C369.945 167.957 369.669 168.026 369.306 167.944L368.611 168.087C368.312 168.793 367.664 168.746 367.062 168.8C366.118 168.976 365.211 169.313 364.381 169.795C364.307 170.205 364.038 170.284 363.675 170.21C363.016 170.301 362.388 170.543 361.838 170.916C361.769 171.332 361.499 171.416 361.132 171.34C360.215 171.548 359.336 171.896 358.526 172.373C341.121 180.783 325.67 192.743 313.168 207.483C304.357 217.778 297.15 229.344 291.792 241.789C290.644 244.457 289.345 247.07 288.693 249.928C288.777 250.285 288.716 250.563 288.3 250.65C287.263 253.321 286.391 256.053 285.69 258.831C286.064 259.167 285.833 259.301 285.499 259.395C285.378 259.865 285.257 260.336 285.135 260.807C285.498 261.133 285.279 261.268 284.952 261.37C284.914 261.556 284.874 261.743 284.838 261.93C285.215 262.257 284.995 262.396 284.659 262.497C284.623 262.683 284.585 262.869 284.547 263.055C284.94 263.388 284.709 263.526 284.367 263.624L284.265 264.183C284.65 264.506 284.438 264.648 284.094 264.753C284.059 264.939 284.024 265.126 283.989 265.314C284.363 265.627 284.16 265.774 283.824 265.881L283.42 267.85C283.798 268.164 283.599 268.312 283.258 268.42C283.214 268.698 283.168 268.976 283.123 269.255C283.515 269.569 283.324 269.72 282.966 269.83C282.923 270.109 282.88 270.387 282.837 270.666C283.229 270.972 283.044 271.128 282.689 271.24L282.565 272.08C282.939 272.374 282.77 272.534 282.426 272.652L282.269 273.768C282.661 274.066 282.485 274.227 282.13 274.343L281.989 275.462C282.401 275.84 282.357 276.128 281.818 276.316C281.787 276.597 281.754 276.878 281.722 277.16C282.098 277.612 282.183 278.014 281.529 278.289L281.451 279.138C281.804 279.669 281.975 280.174 281.243 280.545C281.219 280.828 281.195 281.111 281.172 281.395C281.477 282.003 281.749 282.608 280.965 283.082C280.932 283.55 280.899 284.019 280.865 284.487C281.207 285.097 281.468 285.698 280.679 286.184C280.654 286.655 280.628 287.126 280.601 287.597C280.9 288.654 281.237 289.715 280.397 290.696C280.371 291.73 280.345 292.766 280.318 293.801C280.739 296.126 280.741 298.506 280.323 300.831C280.341 301.585 280.359 302.339 280.376 303.093C281.277 304.261 280.894 305.51 280.606 306.752C280.623 307.131 280.64 307.509 280.658 307.887C281.554 308.559 281.183 309.353 280.878 310.141L280.931 310.989C281.754 311.556 281.512 312.252 281.167 312.959C281.182 313.148 281.197 313.337 281.211 313.528C282.205 314.144 281.803 315.244 281.917 316.058C283.058 323.679 284.821 331.194 287.188 338.527C289.507 345.896 292.509 353.033 296.154 359.845C300.568 368.314 305.915 376.263 312.097 383.544C313.29 384.921 314.471 386.31 315.681 387.673C315.832 387.819 315.951 387.996 316.028 388.191C316.106 388.386 316.141 388.596 316.131 388.805C316.17 388.941 316.241 389.064 316.338 389.166C316.434 389.269 316.554 389.346 316.687 389.392C317.167 389.374 317.433 389.718 317.726 390.01C319.433 391.714 321.139 393.42 322.843 395.127C323.137 395.42 323.478 395.688 323.452 396.169C323.5 396.299 323.578 396.416 323.678 396.511C323.779 396.606 323.9 396.677 324.032 396.718C325.372 396.919 326.045 397.861 326.557 398.983L326.859 399.254C327.267 399.237 327.665 399.375 327.975 399.64C328.284 399.904 328.483 400.276 328.53 400.68L328.829 400.948C328.998 400.921 329.169 400.93 329.334 400.974C329.498 401.019 329.651 401.097 329.783 401.205C329.914 401.313 330.022 401.447 330.098 401.599C330.174 401.751 330.217 401.918 330.224 402.088C330.325 402.177 330.428 402.266 330.529 402.355C331.176 403.23 332.045 403.916 333.047 404.34C333.975 405.425 335.13 406.294 336.429 406.886C336.471 406.979 336.538 407.058 336.624 407.114C336.71 407.17 336.81 407.199 336.912 407.199C337.309 407.145 337.54 407.303 337.567 407.716C337.981 407.716 338.387 407.716 338.401 408.291C339.895 408.641 341.205 409.537 342.075 410.801C342.099 410.826 342.128 410.845 342.161 410.856C342.194 410.868 342.229 410.871 342.263 410.866C342.7 410.882 343.123 411.018 343.488 411.259C343.852 411.501 344.143 411.837 344.329 412.233C344.35 412.256 344.377 412.273 344.408 412.282C344.438 412.292 344.471 412.292 344.501 412.284C345.093 412.28 345.623 412.371 345.738 413.094L345.816 413.141L345.904 413.136C346.343 413.141 346.773 413.268 347.144 413.503C347.516 413.737 347.816 414.07 348.01 414.464C348.085 414.585 348.193 414.683 348.321 414.747C348.449 414.81 348.592 414.837 348.734 414.823C349.315 414.812 349.833 414.902 349.977 415.595L350.719 415.947C352.035 416.308 353.348 416.676 354.206 417.868L354.617 417.947C355.029 417.858 355.298 417.977 355.334 418.438C356.133 419.013 357.041 419.421 358.003 419.636C359.581 419.803 360.844 420.77 362.246 421.367C366.676 423.253 371.183 424.922 375.768 426.376C379.663 427.656 383.627 428.715 387.642 429.548C388.002 429.617 388.53 429.619 388.625 430.184L389.187 430.269C389.864 430.122 390.564 430.116 391.244 430.251C391.924 430.386 392.568 430.659 393.137 431.054C393.326 431.072 393.516 431.091 393.706 431.11C393.849 431.22 394.008 431.306 394.177 431.366C403.663 432.968 413.291 433.572 422.903 433.165C429.038 432.878 435.15 432.21 441.203 431.166C472.511 425.548 500.921 409.302 521.637 385.172C528.844 376.801 535.036 367.608 540.083 357.783C545.456 347.335 549.452 336.235 551.968 324.76C553.65 317.116 554.685 309.345 555.064 301.528C555.274 297.261 555.237 292.998 555.058 288.734V288.732ZM333.052 404.324L333.057 404.336L333.052 404.324ZM334.613 405.049C334.444 404.932 334.269 404.824 334.088 404.726C334.269 404.824 334.444 404.932 334.613 405.049ZM331.371 402.611C331.332 402.595 331.292 402.582 331.25 402.567C331.29 402.583 331.328 402.595 331.371 402.611ZM332.067 403.003C332.045 402.987 332.02 402.974 331.998 402.959C332.021 402.974 332.045 402.987 332.067 403.003ZM335.779 406.001C335.839 406.067 335.886 406.151 335.943 406.22C335.885 406.151 335.839 406.063 335.779 406.001ZM411.417 229.589C411.381 229.61 411.349 229.639 411.324 229.673C411.299 229.707 411.281 229.747 411.273 229.788C411.281 229.747 411.299 229.707 411.324 229.673C411.349 229.639 411.381 229.61 411.417 229.589ZM397.168 419.459C397.09 419.426 396.967 419.408 396.945 419.352C396.923 419.295 397 419.2 397.034 419.123C397.113 419.157 397.235 419.172 397.256 419.229C397.277 419.287 397.201 419.382 397.168 419.459ZM417.537 361.295C417.53 361.295 417.522 361.303 417.515 361.304C417.522 361.304 417.53 361.297 417.537 361.295ZM416.667 361.804C416.607 361.847 416.548 361.893 416.492 361.942C416.548 361.893 416.607 361.847 416.667 361.804ZM416.233 362.226C416.134 362.377 416.071 362.548 416.05 362.727C416.071 362.548 416.134 362.377 416.233 362.226ZM416.076 363.019C416.134 363.148 416.23 363.255 416.352 363.325C416.474 363.396 416.615 363.426 416.755 363.412C416.615 363.426 416.474 363.396 416.352 363.325C416.23 363.255 416.134 363.148 416.076 363.019ZM417.079 363.362C417.241 363.312 417.378 363.205 417.466 363.062C417.378 363.205 417.241 363.312 417.079 363.362ZM417.879 361.904C417.882 361.818 417.872 361.731 417.849 361.648C417.872 361.731 417.882 361.818 417.879 361.904ZM421.102 247.252C421.097 247.161 421.109 247.07 421.139 246.984C421.109 247.07 421.097 247.161 421.102 247.252C421.102 247.433 421.11 247.652 421.356 247.654C421.11 247.654 421.102 247.433 421.102 247.252ZM422.477 250.261C422.538 250.286 422.605 250.295 422.671 250.285C422.605 250.295 422.538 250.286 422.477 250.261ZM434.316 363.463C434.307 363.501 434.303 363.541 434.305 363.581C434.303 363.541 434.307 363.501 434.316 363.463ZM431.481 317.225C431.435 317.389 431.387 317.55 431.359 317.711C431.387 317.55 431.437 317.388 431.481 317.225ZM428.428 255.551C428.296 255.551 428.2 255.644 428.178 255.817C428.201 255.644 428.296 255.553 428.428 255.551ZM428.168 302.976C428.137 302.955 428.099 302.946 428.062 302.952C428.05 302.957 428.045 302.978 428.036 302.989C428.045 302.978 428.049 302.957 428.062 302.952C428.099 302.946 428.137 302.955 428.168 302.976ZM427.233 361.318C427.336 361.301 427.441 361.309 427.54 361.341C427.441 361.309 427.336 361.301 427.233 361.318C427.088 361.345 426.949 361.398 426.823 361.475C426.949 361.398 427.088 361.345 427.233 361.318ZM425.899 362.696C425.88 362.795 425.902 362.897 425.958 362.98C425.902 362.897 425.88 362.795 425.899 362.696ZM427.634 364.132C427.784 364.225 427.948 364.329 428.13 364.446C427.948 364.328 427.784 364.225 427.634 364.132ZM427.948 303.175C428.026 303.209 428.122 303.287 428.178 303.265C428.121 303.287 428.026 303.208 427.948 303.175ZM428.844 256.369C428.873 256.338 428.895 256.301 428.908 256.261C428.894 256.301 428.872 256.338 428.844 256.369ZM433.097 362.313C433.199 362.214 433.326 362.144 433.463 362.109C433.326 362.144 433.199 362.214 433.097 362.313C433.038 362.382 433.003 362.467 432.996 362.558C432.988 362.648 433.01 362.738 433.057 362.815C433.01 362.738 432.988 362.648 432.996 362.558C433.003 362.467 433.038 362.382 433.097 362.313Z" fill="#009DA9" fill-opacity="0.5"/>
<path d="M397.171 419.473C397.09 419.438 396.965 419.42 396.942 419.362C396.918 419.303 396.999 419.204 397.033 419.124C397.115 419.159 397.241 419.177 397.263 419.234C397.285 419.29 397.206 419.396 397.171 419.477" fill="#009DA9" fill-opacity="0.5"/>
</g>
<defs>
<clipPath id="clip0_1758_12691">
<rect width="440" height="440" fill="white" transform="translate(198 72)"/>
</clipPath>
</defs>
</svg>
