<svg width="287" height="287" viewBox="0 0 287 287" fill="none" xmlns="http://www.w3.org/2000/svg">
<path d="M148.184 179.495C134.961 179.48 122.283 174.221 112.933 164.87C103.583 155.52 98.3237 142.843 98.3086 129.62C98.3086 120.453 105.766 112.995 114.934 112.995C124.101 112.995 131.559 120.453 131.559 129.62C131.559 133.477 132.851 137.106 135.292 140.108C136.087 141.084 136.462 142.337 136.333 143.589C136.205 144.841 135.584 145.992 134.608 146.787C133.632 147.582 132.38 147.956 131.127 147.828C129.875 147.7 128.725 147.079 127.93 146.103C124.145 141.446 122.076 135.63 122.068 129.63C122.068 127.74 121.317 125.928 119.981 124.591C118.645 123.255 116.833 122.505 114.943 122.505C113.053 122.505 111.241 123.255 109.905 124.591C108.569 125.928 107.818 127.74 107.818 129.63C107.827 135.669 109.189 141.629 111.803 147.073C114.418 152.517 118.219 157.306 122.928 161.087C127.636 164.869 133.132 167.548 139.012 168.927C144.892 170.305 151.006 170.349 156.905 169.055C158.135 168.781 159.424 169.008 160.488 169.685C161.552 170.362 162.303 171.434 162.576 172.665C162.849 173.895 162.623 175.184 161.946 176.248C161.269 177.312 160.197 178.063 158.966 178.336C155.424 179.109 151.809 179.498 148.184 179.495Z" fill="#7B72B9" fill-opacity="0.3"/>
<path d="M125.116 252.75L123.444 252.74C109.508 252.493 97.1861 246.537 88.7406 235.992C82.8506 228.639 76.9321 216.517 76.5331 197.336C74.7799 198.573 72.8895 199.603 70.8996 200.405C65.1046 202.856 54.7021 202.457 47.3111 197.545C42.3141 194.23 39.5686 189.309 39.5781 183.694C39.5876 178.83 41.2976 174.688 44.5086 171.696C48.2706 168.19 53.2676 166.984 56.8301 166.604C60.6681 146.891 73.9016 135.358 91.3721 136.84C99.0386 137.505 105.765 141.049 110.838 147.11C120.1 158.177 122.238 174.973 121.145 187C121.006 188.244 120.392 189.387 119.431 190.189C118.469 190.99 117.235 191.39 115.987 191.304C115.365 191.248 114.761 191.07 114.209 190.78C113.656 190.491 113.166 190.095 112.766 189.616C112.367 189.137 112.065 188.584 111.88 187.988C111.694 187.393 111.627 186.767 111.683 186.145C112.567 176.474 110.961 162.044 103.561 153.199C100.093 149.067 95.7231 146.739 90.5646 146.293C77.0651 145.172 67.7646 154.653 65.6271 171.791C65.452 172.983 64.8415 174.068 63.9134 174.836C62.9854 175.605 61.8055 176.002 60.6016 175.952C58.8251 175.819 53.6666 176.142 50.9782 178.669C50.1707 179.429 49.1067 180.768 49.0972 183.723C49.0687 186.126 50.2086 188.055 52.5646 189.622C56.8301 192.444 63.9266 193.033 67.1946 191.646C70.6906 190.164 75.3456 188.188 78.3951 174.422C78.6801 172.684 79.0126 170.907 79.3831 169.093C79.6158 167.861 80.3258 166.772 81.3585 166.061C82.3911 165.351 83.6627 165.077 84.8961 165.3C86.1295 165.524 87.2247 166.225 87.9431 167.252C88.6614 168.279 88.9447 169.549 88.7311 170.784C88.4415 172.6 88.1058 174.409 87.7241 176.208C83.7721 199.645 86.6696 218.179 96.1601 230.026C102.81 238.338 112.576 243.022 123.625 243.221L125.126 243.231C170.279 243.231 181.195 205.915 187.759 183.523C189.982 175.923 191.322 171.325 193.839 168.817C194.618 168.038 196.214 166.803 198.39 165.15C209.381 156.828 235.126 137.325 233.711 108.939C232.523 85.2364 212.07 65.9514 188.101 65.9514C176.767 65.964 165.901 70.472 157.886 78.4865C149.872 86.501 145.364 97.3673 145.351 108.701C145.578 109.807 145.403 110.958 144.858 111.947C144.313 112.936 143.434 113.698 142.378 114.097C139.205 115.265 136.467 117.38 134.535 120.154C132.603 122.929 131.57 126.23 131.576 129.611C131.576 136.669 136.117 142.958 142.862 145.257C143.474 145.44 144.043 145.745 144.534 146.153C145.026 146.561 145.43 147.064 145.723 147.631C146.015 148.199 146.191 148.82 146.238 149.457C146.285 150.094 146.203 150.734 145.998 151.339C145.792 151.943 145.466 152.5 145.04 152.976C144.614 153.452 144.096 153.837 143.518 154.109C142.94 154.38 142.313 154.532 141.674 154.555C141.036 154.578 140.4 154.473 139.803 154.244C134.646 152.504 130.163 149.193 126.983 144.775C123.804 140.357 122.088 135.054 122.076 129.611C122.076 119.987 127.51 111.143 135.889 106.63C136.441 93.148 142.181 80.4002 151.911 71.0509C161.641 61.7016 174.607 56.4742 188.101 56.4609C217.048 56.4609 241.757 79.7929 243.192 108.473C244.873 141.875 215.271 164.286 204.128 172.731C202.437 174.004 201.164 174.935 200.565 175.543C199.691 176.617 198.133 181.927 196.879 186.202C190.514 207.881 177.376 252.75 125.116 252.75Z" fill="#7B72B9" fill-opacity="0.3"/>
<path d="M60.6016 175.952C61.8055 176.002 62.9854 175.605 63.9134 174.836C64.8415 174.068 65.452 172.983 65.6271 171.791L60.6016 175.952ZM60.6016 175.952C58.8251 175.819 53.6666 176.142 50.9782 178.669M60.6016 175.952L50.9782 178.669M50.9782 178.669C50.1707 179.429 49.1067 180.768 49.0972 183.723L50.9782 178.669ZM125.116 252.85H125.116C151.28 252.85 167.658 241.615 178.288 227.666C188.897 213.743 193.779 197.118 196.961 186.279L196.975 186.231C197.602 184.093 198.305 181.698 198.96 179.704C199.287 178.706 199.602 177.811 199.89 177.098C200.177 176.385 200.433 175.867 200.64 175.61C201.154 175.089 202.17 174.326 203.533 173.303C203.744 173.145 203.962 172.981 204.188 172.811L204.188 172.811L204.213 172.792C209.79 168.565 219.968 160.852 228.547 150.023C237.14 139.178 244.134 125.202 243.291 108.468C241.854 79.734 217.1 56.3609 188.101 56.3609V56.4609L188.101 56.3609C174.581 56.3742 161.59 61.6116 151.842 70.9788C142.107 80.3328 136.358 93.0823 135.792 106.569C127.409 111.107 121.976 119.969 121.976 129.611V129.611C121.988 135.075 123.711 140.398 126.902 144.833C130.093 149.267 134.593 152.591 139.769 154.339C140.378 154.571 141.027 154.679 141.678 154.655C142.33 154.631 142.97 154.476 143.561 154.199C144.151 153.922 144.68 153.529 145.115 153.043C145.55 152.557 145.882 151.988 146.092 151.371C146.302 150.754 146.386 150.1 146.338 149.45C146.289 148.799 146.111 148.165 145.812 147.586C145.513 147.006 145.1 146.493 144.598 146.076C144.097 145.66 143.517 145.349 142.893 145.162C136.189 142.876 131.676 136.625 131.676 129.611V129.611C131.67 126.25 132.697 122.969 134.617 120.211C136.538 117.454 139.259 115.352 142.412 114.191L142.413 114.191C143.491 113.783 144.389 113.005 144.945 111.995C145.5 110.989 145.679 109.818 145.451 108.691C145.466 97.3874 149.964 86.5506 157.957 78.5572C165.953 70.5615 176.794 66.064 188.101 66.0514C212.017 66.0514 232.426 85.2955 233.611 108.944C234.317 123.104 228.249 135.053 220.625 144.506C213 153.96 203.825 160.91 198.329 165.071L198.329 165.071C196.156 166.722 194.554 167.962 193.769 168.747C192.495 170.015 191.525 171.807 190.595 174.225C189.672 176.627 188.786 179.658 187.684 183.423L187.663 183.495L187.654 183.525C184.372 194.72 180.006 209.613 170.834 221.714C161.658 233.818 147.669 243.131 125.126 243.131L123.626 243.121C112.606 242.922 102.869 238.252 96.2382 229.963L96.1601 230.026L96.2382 229.963C86.7738 218.15 83.873 199.65 87.8224 176.227C88.2042 174.427 88.5401 172.618 88.8298 170.8C89.0476 169.539 88.7584 168.244 88.025 167.195C87.2915 166.146 86.1733 165.43 84.9139 165.202C83.6546 164.974 82.3562 165.253 81.3018 165.979C80.2476 166.704 79.5226 167.816 79.285 169.074C78.9145 170.888 78.582 172.665 78.2969 174.403C76.7741 181.276 74.853 185.194 72.8852 187.577C70.9195 189.957 68.9011 190.814 67.1556 191.554C65.5445 192.238 62.9734 192.439 60.2656 192.113C57.56 191.788 54.7358 190.939 52.6198 189.539C50.2861 187.986 49.1691 186.087 49.1971 183.724L49.1972 183.723C49.2019 182.258 49.4679 181.199 49.8292 180.415C50.1904 179.631 50.6491 179.116 51.0466 178.742C52.3711 177.497 54.3115 176.789 56.152 176.411C57.9909 176.033 59.7154 175.986 60.5942 176.052L60.5975 176.052C61.826 176.103 63.0301 175.698 63.9772 174.913C64.9243 174.129 65.5474 173.022 65.7261 171.805L65.7264 171.803C66.7934 163.248 69.6468 156.617 73.9066 152.265C78.1641 147.915 83.8342 145.834 90.5564 146.393C95.6869 146.837 100.033 149.151 103.484 153.264C107.17 157.669 109.416 163.47 110.63 169.383C111.844 175.294 112.024 181.31 111.584 186.136C111.526 186.771 111.594 187.41 111.784 188.018C111.974 188.626 112.282 189.191 112.69 189.68C113.098 190.169 113.598 190.573 114.162 190.869C114.726 191.165 115.343 191.346 115.978 191.404L115.98 191.404C117.254 191.492 118.514 191.084 119.495 190.265C120.476 189.447 121.103 188.281 121.245 187.012L121.245 187.009C122.338 174.97 120.201 158.142 110.914 147.046C105.825 140.965 99.0745 137.408 91.3808 136.741L91.3806 136.741C82.6199 135.998 74.9169 138.518 68.9236 143.699C62.946 148.866 58.6753 156.673 56.7461 166.512C53.1793 166.902 48.1996 168.12 44.4405 171.623C41.207 174.636 39.4877 178.806 39.4781 183.694L39.5781 183.694L39.4781 183.694C39.4686 189.345 42.2331 194.296 47.2558 197.629C50.9677 200.095 55.4326 201.427 59.6944 201.836C63.9549 202.244 68.0215 201.731 70.9381 200.497C72.8768 199.716 74.7214 198.719 76.4372 197.526C76.8712 216.619 82.7776 228.708 88.6626 236.054C97.1273 246.623 109.477 252.593 123.442 252.84H123.444L125.116 252.85ZM134.535 120.154C132.603 122.929 131.57 126.23 131.576 129.611L145.351 108.701C145.578 109.807 145.403 110.958 144.858 111.947C144.313 112.936 143.434 113.698 142.378 114.097C139.205 115.265 136.467 117.38 134.535 120.154Z" stroke="#7B72B9" stroke-opacity="0.3" stroke-width="0.2"/>
<path d="M143.5 286C64.9255 286 1 222.075 1 143.5C1 110.117 16.238 69.6945 36.4255 49.469C46.2675 39.5985 59.9475 36.6345 71.281 41.926C82.1205 46.98 88.1245 58.266 86.956 71.3665C86.177 80.078 82.168 86.006 78.634 91.231C74.701 97.0545 71.851 101.263 73.7225 108.246C75.746 115.77 79.8025 119.342 88.172 121.014C89.3651 121.301 90.4008 122.038 91.0621 123.072C91.7234 124.106 91.959 125.355 91.7195 126.559C91.4801 127.762 90.7841 128.826 89.7774 129.528C88.7708 130.23 87.5316 130.515 86.3195 130.324C78.843 128.842 68.431 125.194 64.5455 110.706C61.553 99.5435 66.4455 92.295 70.7585 85.911C73.9315 81.218 76.924 76.791 77.4845 70.521C78.3015 61.382 74.473 53.9055 67.253 50.533C61.154 47.683 51.616 47.683 43.1325 56.1855C27.3245 72.0315 10.5 108.027 10.5 143.5C10.5 216.84 70.16 276.5 143.5 276.5C216.84 276.5 276.5 216.84 276.5 143.5C276.5 70.16 216.84 10.5001 143.5 10.5001C118.857 10.5001 94.8125 17.2831 73.941 30.1081C72.8708 30.7164 71.6063 30.8856 70.4138 30.5799C69.2214 30.2742 68.1942 29.5175 67.5487 28.4692C66.9033 27.421 66.69 26.1631 66.9538 24.9607C67.2176 23.7583 67.938 22.7053 68.963 22.0236C91.385 8.25445 117.188 0.976672 143.5 1.00006C222.074 1.00006 286 64.9255 286 143.5C286 222.075 222.074 286 143.5 286Z" fill="#7B72B9" fill-opacity="0.3"/>
<path d="M88.1954 120.916L88.1954 120.916L88.1916 120.915C84.0164 120.081 80.9289 118.776 78.6337 116.749C76.3394 114.723 74.8274 111.969 73.8191 108.22C72.8887 104.748 73.1323 101.972 74.0955 99.338C75.0592 96.7028 76.7435 94.2089 78.7081 91.3001L78.7168 91.2871L78.7169 91.287L78.7189 91.284C82.2523 86.0599 86.2742 80.1135 87.0556 71.3754C88.2273 58.2386 82.2058 46.9095 71.3233 41.8354C59.9462 36.5236 46.2219 39.5026 36.3547 49.3984C26.2479 59.5243 17.385 74.7 11.0489 91.5152C4.71245 108.331 0.9 126.794 0.9 143.5C0.9 222.13 64.8703 286.1 143.5 286.1C222.13 286.1 286.1 222.13 286.1 143.5C286.1 64.8703 222.13 0.900056 143.5 0.900056C117.169 0.876655 91.3485 8.15955 68.9107 21.9383L68.9106 21.9383L68.9076 21.9403C67.861 22.6363 67.1255 23.7115 66.8561 24.9393C66.5868 26.167 66.8045 27.4514 67.4636 28.5217C68.1226 29.592 69.1714 30.3646 70.389 30.6768C71.6065 30.9889 72.8977 30.8162 73.9904 30.195L73.9905 30.195L73.9934 30.1933C94.849 17.378 118.875 10.6001 143.5 10.6001C216.785 10.6001 276.4 70.2153 276.4 143.5C276.4 216.785 216.785 276.4 143.5 276.4C70.2152 276.4 10.6 216.785 10.6 143.5C10.6 125.779 14.8027 107.924 20.9811 92.5199C27.1598 77.1146 35.3115 64.167 43.2033 56.2562C51.6561 47.7844 61.1486 47.7909 67.2107 50.6236L67.253 50.533L67.2107 50.6236C74.3856 53.9751 78.1989 61.4068 77.3849 70.5121C76.827 76.7531 73.8499 81.1602 70.6757 85.855L70.7585 85.911L70.6756 85.855C66.3626 92.2391 61.4437 99.5222 64.4489 110.732C66.3974 117.997 69.9849 122.551 74.0273 125.473C78.0675 128.393 82.5559 129.679 86.3 130.422L86.3039 130.422C87.5415 130.618 88.8068 130.327 89.8346 129.61C90.8625 128.894 91.5731 127.807 91.8176 126.578C92.0621 125.349 91.8216 124.074 91.1463 123.018C90.4711 121.963 89.4136 121.209 88.1954 120.916Z" stroke="#7B72B9" stroke-opacity="0.3" stroke-width="0.2"/>
<path d="M186.251 39H185.291C184.031 39 182.823 38.4996 181.932 37.6088C181.041 36.718 180.541 35.5098 180.541 34.25C180.541 32.9902 181.041 31.782 181.932 30.8912C182.823 30.0004 184.031 29.5 185.291 29.5H186.251C187.51 29.5 188.718 30.0004 189.609 30.8912C190.5 31.782 191.001 32.9902 191.001 34.25C191.001 35.5098 190.5 36.718 189.609 37.6088C188.718 38.4996 187.51 39 186.251 39ZM119.751 86.5H118.791C117.531 86.5 116.323 85.9995 115.432 85.1087C114.541 84.218 114.041 83.0098 114.041 81.75C114.041 80.4902 114.541 79.282 115.432 78.3912C116.323 77.5004 117.531 77 118.791 77H119.751C121.01 77 122.218 77.5004 123.109 78.3912C124 79.282 124.501 80.4902 124.501 81.75C124.501 83.0098 124 84.218 123.109 85.1087C122.218 85.9995 121.01 86.5 119.751 86.5ZM130.201 39H129.251C127.991 39 126.783 38.4996 125.892 37.6088C125.001 36.718 124.501 35.5098 124.501 34.25C124.501 32.9902 125.001 31.782 125.892 30.8912C126.783 30.0004 127.991 29.5 129.251 29.5C131.873 29.5 134.476 31.628 134.476 34.25C134.476 36.872 132.823 39 130.201 39ZM262.251 153H261.291C260.031 153 258.823 152.5 257.932 151.609C257.041 150.718 256.541 149.51 256.541 148.25C256.541 146.99 257.041 145.782 257.932 144.891C258.823 144 260.031 143.5 261.291 143.5H262.251C263.51 143.5 264.718 144 265.609 144.891C266.5 145.782 267.001 146.99 267.001 148.25C267.001 149.51 266.5 150.718 265.609 151.609C264.718 152.5 263.51 153 262.251 153ZM205.251 238.5H204.291C203.031 238.5 201.823 238 200.932 237.109C200.041 236.218 199.541 235.01 199.541 233.75C199.541 232.49 200.041 231.282 200.932 230.391C201.823 229.5 203.031 229 204.291 229H205.251C206.51 229 207.718 229.5 208.609 230.391C209.5 231.282 210.001 232.49 210.001 233.75C210.001 235.01 209.5 236.218 208.609 237.109C207.718 238 206.51 238.5 205.251 238.5ZM225.201 200.5H224.251C222.991 200.5 221.783 200 220.892 199.109C220.001 198.218 219.501 197.01 219.501 195.75C219.501 194.49 220.001 193.282 220.892 192.391C221.783 191.5 222.991 191 224.251 191C226.873 191 229.476 193.128 229.476 195.75C229.476 198.372 227.823 200.5 225.201 200.5ZM63.7005 229H62.7505C61.4907 229 60.2826 228.5 59.3918 227.609C58.501 226.718 58.0005 225.51 58.0005 224.25C58.0005 222.99 58.501 221.782 59.3918 220.891C60.2826 220 61.4907 219.5 62.7505 219.5C65.3725 219.5 67.9755 221.628 67.9755 224.25C67.9755 226.872 66.3225 229 63.7005 229ZM44.7005 143.5H43.7505C42.4907 143.5 41.2826 143 40.3918 142.109C39.501 141.218 39.0005 140.01 39.0005 138.75C39.0005 137.49 39.501 136.282 40.3918 135.391C41.2826 134.5 42.4907 134 43.7505 134C46.3725 134 48.9755 136.128 48.9755 138.75C48.9755 141.372 47.3225 143.5 44.7005 143.5ZM34.2505 115H33.291C32.0312 115 30.8231 114.5 29.9323 113.609C29.0415 112.718 28.541 111.51 28.541 110.25C28.541 108.99 29.0415 107.782 29.9323 106.891C30.8231 106 32.0312 105.5 33.291 105.5H34.2505C35.5103 105.5 36.7185 106 37.6093 106.891C38.5001 107.782 39.0005 108.99 39.0005 110.25C39.0005 111.51 38.5001 112.718 37.6093 113.609C36.7185 114.5 35.5103 115 34.2505 115Z" fill="#7B72B9" fill-opacity="0.3"/>
</svg>
