<svg width="40" height="40" viewBox="0 0 40 40" fill="none" xmlns="http://www.w3.org/2000/svg">
<ellipse cx="19.8611" cy="20" rx="19.8611" ry="20" fill="#E6F5F6"/>
<path d="M24.1161 16.4062C23.9434 16.4062 23.8027 16.5479 23.8027 16.7219C23.8027 16.8959 23.9434 17.0375 24.1161 17.0375C24.289 17.0375 24.4296 16.8959 24.4296 16.7219C24.4296 16.5478 24.289 16.4062 24.1161 16.4062Z" fill="#009DA9"/>
<path d="M20.3586 17.7031C18.8265 17.7031 17.5801 18.9583 17.5801 20.5011C17.5801 22.0439 18.8265 23.299 20.3586 23.299C21.8907 23.299 23.1371 22.0439 23.1371 20.5011C23.1371 18.9583 21.8907 17.7031 20.3586 17.7031Z" fill="#009DA9"/>
<path d="M23.275 14H17.4433C15.4919 14 13.9043 15.5987 13.9043 17.5638V23.4362C13.9043 25.4013 15.4919 27 17.4433 27H23.275C25.2265 27 26.814 25.4013 26.814 23.4362V17.5638C26.814 15.5987 25.2265 14 23.275 14ZM20.3592 24.0657C18.4067 24.0657 16.8183 22.4661 16.8183 20.5C16.8183 18.5339 18.4067 16.9344 20.3592 16.9344C22.3116 16.9344 23.9001 18.5339 23.9001 20.5C23.9001 22.4661 22.3116 24.0657 20.3592 24.0657ZM24.1118 17.8044C23.5186 17.8044 23.036 17.3185 23.036 16.7211C23.036 16.1238 23.5186 15.6378 24.1118 15.6378C24.705 15.6378 25.1876 16.1237 25.1876 16.7211C25.1876 17.3184 24.705 17.8044 24.1118 17.8044Z" fill="#009DA9"/>
</svg>
