<svg width="20" height="20" viewBox="0 0 20 20" fill="none"
  xmlns="http://www.w3.org/2000/svg">
  <g clip-path="url(#clip0_4_2000)">
    <path d="M0.833362 17.8125C0.833362 18.4167 1.08586 18.9692 1.41086 19.2759C1.70586 19.6809 2.3992 20 3.01003 20C3.37086 20 3.73503 19.91 4.0692 19.725L14.0084 14.17C14.0242 14.1609 14.0317 14.1459 14.0459 14.1359C14.6175 13.8834 15.6909 13.2109 18.0467 11.9125H18.0475C19.5375 11.0767 19.5392 8.92502 18.0467 8.08752C15.8384 6.96002 14.765 6.18252 14.1267 5.88502C13.4592 5.41169 11.7684 4.56252 8.0892 2.50002C3.41836 -0.116645 2.69503 -0.566645 1.5717 0.547522C0.388362 1.03669 0.968362 4.30836 0.833362 17.8125ZM9.39753 9.98086C9.31336 10.0634 2.1617 17.71 2.08336 17.7934C2.20586 5.53335 1.97086 3.76836 2.09086 2.21419C2.16836 2.29752 9.11586 9.71086 9.39753 9.98086ZM2.90503 18.7442C12.5242 8.64336 9.85003 11.4559 10.3142 10.94C10.3934 11.0242 12.8567 13.6375 12.6992 13.4709C3.18253 18.7175 3.4592 18.8092 2.90503 18.7442ZM17.4359 10.8217L13.8242 12.8417L11.1459 10L13.8242 7.15836L17.4359 9.17836C18.0759 9.53586 18.075 10.4642 17.4359 10.8217ZM12.6967 6.53169C11.6559 7.62502 12.5767 6.68252 10.275 9.07502L2.90336 1.25336C3.73753 1.32752 6.35586 3.01752 12.6967 6.53169Z" fill="white"/>
  </g>
  <defs>
    <clipPath id="clip0_4_2000">
      <rect width="20" height="20" fill="white"/>
    </clipPath>
  </defs>
</svg>
