<svg width="28" height="28" viewBox="0 0 28 28" fill="none" xmlns="http://www.w3.org/2000/svg">
<circle cx="14" cy="14" r="14" fill="#009DA9"/>
<g clip-path="url(#clip0_1597_2)">
<path d="M12.4162 17.6426H9.21713C9.0422 17.6426 8.90039 17.7844 8.90039 17.9593C8.90039 18.1343 9.0422 18.2761 9.21713 18.2761H12.4162C12.5912 18.2761 12.733 18.1343 12.733 17.9593C12.733 17.7844 12.5912 17.6426 12.4162 17.6426Z" fill="white"/>
<path d="M17.1994 17.6426H14.0003C13.8254 17.6426 13.6836 17.7844 13.6836 17.9593C13.6836 18.1343 13.8254 18.2761 14.0003 18.2761H17.1994C17.3743 18.2761 17.5162 18.1343 17.5162 17.9593C17.5162 17.7844 17.3743 17.6426 17.1994 17.6426Z" fill="white"/>
<path d="M17.199 9.72412H9.21713C9.0422 9.72412 8.90039 9.86593 8.90039 10.0409C8.90039 10.2158 9.0422 10.3576 9.21713 10.3576H17.199C17.3739 10.3576 17.5158 10.2158 17.5158 10.0409C17.5158 9.86593 17.3739 9.72412 17.199 9.72412Z" fill="white"/>
<path d="M17.1994 11.3081H14.0003C13.8254 11.3081 13.6836 11.4499 13.6836 11.6248C13.6836 11.7998 13.8254 11.9416 14.0003 11.9416H17.1994C17.3743 11.9416 17.5162 11.7998 17.5162 11.6248C17.5162 11.4499 17.3743 11.3081 17.1994 11.3081Z" fill="white"/>
<path d="M17.1994 12.8916H14.0003C13.8254 12.8916 13.6836 13.0334 13.6836 13.2083C13.6836 13.3833 13.8254 13.5251 14.0003 13.5251H17.1994C17.3743 13.5251 17.5162 13.3833 17.5162 13.2083C17.5162 13.0334 17.3743 12.8916 17.1994 12.8916Z" fill="white"/>
<path d="M17.1994 14.4751H14.0003C13.8254 14.4751 13.6836 14.6169 13.6836 14.7918C13.6836 14.9668 13.8254 15.1086 14.0003 15.1086H17.1994C17.3743 15.1086 17.5162 14.9668 17.5162 14.7918C17.5162 14.6169 17.3743 14.4751 17.1994 14.4751Z" fill="white"/>
<path d="M17.1994 16.0591H14.0003C13.8254 16.0591 13.6836 16.2009 13.6836 16.3758C13.6836 16.5508 13.8254 16.6926 14.0003 16.6926H17.1994C17.3743 16.6926 17.5162 16.5508 17.5162 16.3758C17.5162 16.2009 17.3743 16.0591 17.1994 16.0591Z" fill="white"/>
<path d="M12.4162 16.0591H9.21713C9.0422 16.0591 8.90039 16.2009 8.90039 16.3758C8.90039 16.5508 9.0422 16.6926 9.21713 16.6926H12.4162C12.5912 16.6926 12.733 16.5508 12.733 16.3758C12.733 16.2009 12.5912 16.0591 12.4162 16.0591Z" fill="white"/>
<path d="M12.4162 11.3081H9.21713C9.0422 11.3081 8.90039 11.4499 8.90039 11.6248V14.8239C8.90039 14.9989 9.0422 15.1407 9.21713 15.1407H12.4162C12.5912 15.1407 12.733 14.9989 12.733 14.8239V11.6248C12.733 11.4499 12.5912 11.3081 12.4162 11.3081ZM12.0995 14.5072H9.53387V11.9416H12.0995V14.5072Z" fill="white"/>
<path d="M20.3665 9.40744H19.4163V8.45721C19.4163 8.10791 19.1321 7.82373 18.7828 7.82373H7.63348C7.28418 7.82373 7 8.10791 7 8.45721V18.593C7 19.4662 7.71045 20.1767 8.58371 20.1767H19.4163C20.2895 20.1767 21 19.4662 21 18.593V10.0409C21 9.69162 20.7158 9.40744 20.3665 9.40744ZM20.3665 18.593C20.3665 19.1169 19.9402 19.5432 19.4163 19.5432H8.58371C8.05976 19.5432 7.63348 19.1169 7.63348 18.593V8.45721H18.7828V18.1178C18.7828 18.5545 19.138 18.9097 19.5747 18.9097C19.7496 18.9097 19.8914 18.7679 19.8914 18.593C19.8914 18.418 19.7496 18.2762 19.5747 18.2762C19.4873 18.2762 19.4163 18.2052 19.4163 18.1178V10.0409H20.3665V18.593Z" fill="white"/>
</g>
<defs>
<clipPath id="clip0_1597_2">
<rect width="14" height="14" fill="white" transform="translate(7 7)"/>
</clipPath>
</defs>
</svg>
