<svg width="88" height="108" viewBox="0 0 88 108" fill="none" xmlns="http://www.w3.org/2000/svg">
<path d="M86.7424 25.1546C71.3513 19.9223 57.2325 11.5355 45.2968 0.53532C45.1317 0.366338 44.9342 0.232023 44.7161 0.140309C44.4979 0.0485954 44.2636 0.00134277 44.0268 0.00134277C43.79 0.00134277 43.5556 0.0485954 43.3375 0.140309C43.1194 0.232023 42.9219 0.366338 42.7568 0.53532C30.8005 11.5362 16.6636 19.9225 1.25599 25.1546C0.885712 25.2835 0.565354 25.5247 0.340032 25.8444C0.11471 26.1641 -0.0042225 26.5461 -1.41192e-05 26.9367C-1.41192e-05 29.7304 0.495184 95.5051 43.536 107.931C43.8564 108.023 44.1964 108.023 44.5168 107.931C87.5064 95.5043 88 29.7296 88 26.9367C88.0041 26.5459 87.885 26.1638 87.6595 25.844C87.4341 25.5242 87.1136 25.2828 86.7432 25.1538L86.7424 25.1546ZM65.2872 45.0381L45.3112 65.6154C45.1453 65.7881 44.946 65.9255 44.7253 66.0194C44.5047 66.1133 44.2672 66.1617 44.0272 66.1617C43.7872 66.1617 43.5497 66.1133 43.329 66.0194C43.1084 65.9255 42.9091 65.7881 42.7432 65.6154L31.2688 53.851C30.9259 53.495 30.7339 53.0211 30.7329 52.5278C30.7318 52.0345 30.9218 51.5597 31.2632 51.2023C31.4287 51.0285 31.6279 50.89 31.8487 50.7952C32.0696 50.7004 32.3075 50.6513 32.548 50.6507C32.7885 50.6502 33.0266 50.6983 33.2479 50.7922C33.4691 50.886 33.6689 51.0237 33.8352 51.1967L44.024 61.6435L62.72 42.3878C62.8861 42.2144 63.0857 42.0764 63.3069 41.9821C63.5281 41.8879 63.7662 41.8392 64.0068 41.8392C64.2474 41.8392 64.4855 41.8879 64.7067 41.9821C64.9278 42.0764 65.1275 42.2144 65.2936 42.3878C65.6351 42.7451 65.8256 43.2196 65.8256 43.7129C65.8256 44.2063 65.6351 44.6807 65.2936 45.0381H65.2872Z" fill="#FFFCF5"/>
</svg>
