<svg width="28" height="28" viewBox="0 0 28 28" fill="none" xmlns="http://www.w3.org/2000/svg">
<circle cx="14" cy="14" r="14" fill="#009DA9"/>
<path d="M7.33203 14.0003C7.33203 11.4862 7.33203 10.2291 8.11308 9.44804C8.89413 8.66699 10.1512 8.66699 12.6654 8.66699H15.332C17.8462 8.66699 19.1033 8.66699 19.8843 9.44804C20.6654 10.2291 20.6654 11.4862 20.6654 14.0003V15.3337C20.6654 17.8478 20.6654 19.1049 19.8843 19.8859C19.1033 20.667 17.8462 20.667 15.332 20.667H12.6654C10.1512 20.667 8.89413 20.667 8.11308 19.8859C7.33203 19.1049 7.33203 17.8478 7.33203 15.3337V14.0003Z" stroke="white" stroke-width="1.2"/>
<path d="M10.668 8.66699V7.66699" stroke="white" stroke-width="1.2" stroke-linecap="round"/>
<path d="M17.332 8.66699V7.66699" stroke="white" stroke-width="1.2" stroke-linecap="round"/>
<path d="M7.66797 12H20.3346" stroke="white" stroke-width="1.2" stroke-linecap="round"/>
<path d="M18.0013 17.3333C18.0013 17.7015 17.7028 18 17.3346 18C16.9664 18 16.668 17.7015 16.668 17.3333C16.668 16.9651 16.9664 16.6667 17.3346 16.6667C17.7028 16.6667 18.0013 16.9651 18.0013 17.3333Z" fill="white"/>
<path d="M18.0013 14.6667C18.0013 15.0349 17.7028 15.3333 17.3346 15.3333C16.9664 15.3333 16.668 15.0349 16.668 14.6667C16.668 14.2985 16.9664 14 17.3346 14C17.7028 14 18.0013 14.2985 18.0013 14.6667Z" fill="white"/>
<path d="M14.6654 17.3333C14.6654 17.7015 14.3669 18 13.9987 18C13.6305 18 13.332 17.7015 13.332 17.3333C13.332 16.9651 13.6305 16.6667 13.9987 16.6667C14.3669 16.6667 14.6654 16.9651 14.6654 17.3333Z" fill="white"/>
<path d="M14.6654 14.6667C14.6654 15.0349 14.3669 15.3333 13.9987 15.3333C13.6305 15.3333 13.332 15.0349 13.332 14.6667C13.332 14.2985 13.6305 14 13.9987 14C14.3669 14 14.6654 14.2985 14.6654 14.6667Z" fill="white"/>
<path d="M11.3333 17.3333C11.3333 17.7015 11.0349 18 10.6667 18C10.2985 18 10 17.7015 10 17.3333C10 16.9651 10.2985 16.6667 10.6667 16.6667C11.0349 16.6667 11.3333 16.9651 11.3333 17.3333Z" fill="white"/>
<path d="M11.3333 14.6667C11.3333 15.0349 11.0349 15.3333 10.6667 15.3333C10.2985 15.3333 10 15.0349 10 14.6667C10 14.2985 10.2985 14 10.6667 14C11.0349 14 11.3333 14.2985 11.3333 14.6667Z" fill="white"/>
</svg>
