<svg width="40" height="40" viewBox="0 0 40 40" fill="none" xmlns="http://www.w3.org/2000/svg">
<circle cx="20" cy="20" r="20" fill="white" fill-opacity="0.1"/>
<path d="M24.2844 16.4062C24.1104 16.4062 23.9688 16.5479 23.9688 16.7219C23.9688 16.8959 24.1104 17.0375 24.2844 17.0375C24.4584 17.0375 24.6 16.8959 24.6 16.7219C24.6 16.5478 24.4584 16.4062 24.2844 16.4062Z" fill="white"/>
<path d="M20.5011 17.7031C18.9583 17.7031 17.7031 18.9583 17.7031 20.5011C17.7031 22.0439 18.9583 23.299 20.5011 23.299C22.0439 23.299 23.299 22.0439 23.299 20.5011C23.299 18.9583 22.0439 17.7031 20.5011 17.7031Z" fill="white"/>
<path d="M23.4362 14H17.5638C15.5987 14 14 15.5987 14 17.5638V23.4362C14 25.4013 15.5987 27 17.5638 27H23.4362C25.4013 27 27 25.4013 27 23.4362V17.5638C27 15.5987 25.4013 14 23.4362 14ZM20.5 24.0657C18.5339 24.0657 16.9344 22.4661 16.9344 20.5C16.9344 18.5339 18.5339 16.9344 20.5 16.9344C22.4661 16.9344 24.0657 18.5339 24.0657 20.5C24.0657 22.4661 22.4661 24.0657 20.5 24.0657ZM24.2789 17.8044C23.6816 17.8044 23.1956 17.3185 23.1956 16.7211C23.1956 16.1238 23.6816 15.6378 24.2789 15.6378C24.8763 15.6378 25.3622 16.1237 25.3622 16.7211C25.3622 17.3184 24.8763 17.8044 24.2789 17.8044Z" fill="white"/>
</svg>
