<svg width="28" height="28" viewBox="0 0 28 28" fill="none" xmlns="http://www.w3.org/2000/svg">
<circle cx="14" cy="14" r="14" fill="#009DA9"/>
<g clip-path="url(#clip0_1011_46455)">
<path d="M20.6404 8.25438C20.3015 7.80506 19.7843 7.54738 19.2215 7.54738H18.9832V7.41066C18.9832 7.18415 18.7996 7.00052 18.5731 7.00052C18.3466 7.00052 18.1629 7.18415 18.1629 7.41066V8.50438C18.1629 8.73089 18.3466 8.91453 18.5731 8.91453C18.7996 8.91453 18.9832 8.73089 18.9832 8.50438V8.36767H19.2215C19.5245 8.36767 19.803 8.50643 19.9855 8.74836C20.168 8.99029 20.2249 9.29618 20.1416 9.58757L19.0531 13.3976C18.7493 14.4608 17.7648 15.2034 16.6591 15.2034C15.5533 15.2034 14.5688 14.4608 14.265 13.3976L13.1765 9.58755C13.0932 9.29615 13.1502 8.99027 13.3326 8.74834C13.5151 8.50638 13.7936 8.36764 14.0967 8.36764H14.3349V8.50435C14.3349 8.73086 14.5185 8.9145 14.745 8.9145C14.9716 8.9145 15.1552 8.73086 15.1552 8.50435V7.41063C15.1552 7.18412 14.9716 7.00049 14.745 7.00049C14.5185 7.00049 14.3349 7.18412 14.3349 7.41063V7.54735H14.0967C13.5339 7.54735 13.0167 7.80506 12.6777 8.25436C12.3388 8.70368 12.2331 9.27173 12.3877 9.81288L13.4763 13.6229C13.6755 14.3202 14.0868 14.9195 14.6657 15.3562C14.7898 15.4498 14.9192 15.5333 15.0527 15.6077L16.2489 18.4311V18.7271C16.2489 19.5281 15.5973 20.1798 14.7963 20.1798C13.9952 20.1798 13.3436 19.5281 13.3436 18.7271V15.9143C13.3436 14.6177 12.2887 13.5628 10.9921 13.5628C9.69547 13.5628 8.64058 14.6177 8.64058 15.9143V16.8852C7.70567 17.0758 7 17.9043 7 18.8947C7 20.0255 7.91996 20.9454 9.05072 20.9454C10.1815 20.9454 11.1014 20.0255 11.1014 18.8947C11.1014 17.9044 10.3958 17.0758 9.46087 16.8852V15.9143C9.46087 15.07 10.1478 14.3831 10.9921 14.3831C11.8364 14.3831 12.5233 15.07 12.5233 15.9143V18.7271C12.5233 19.9805 13.5429 21.0001 14.7963 21.0001C16.0496 21.0001 17.0692 19.9805 17.0692 18.7271V18.4311L18.2655 15.6077C18.3989 15.5333 18.5284 15.4498 18.6524 15.3562C19.2313 14.9195 19.6426 14.3202 19.8418 13.6229L20.9304 9.81288C21.085 9.27176 20.9793 8.70368 20.6404 8.25438ZM10.2812 18.8947C10.2812 19.5732 9.72919 20.1251 9.05072 20.1251C8.37226 20.1251 7.82029 19.5732 7.82029 18.8947C7.82029 18.2162 8.37226 17.6643 9.05072 17.6643C9.72919 17.6643 10.2812 18.2162 10.2812 18.8947ZM16.6591 17.2965L16.0999 15.9765C16.283 16.0076 16.4698 16.0237 16.6591 16.0237C16.8484 16.0237 17.0352 16.0076 17.2183 15.9765L16.6591 17.2965Z" fill="white"/>
<path d="M9.05077 19.3047C9.27729 19.3047 9.46092 19.121 9.46092 18.8945C9.46092 18.668 9.27729 18.4844 9.05077 18.4844C8.82425 18.4844 8.64062 18.668 8.64062 18.8945C8.64062 19.121 8.82425 19.3047 9.05077 19.3047Z" fill="white"/>
</g>
<defs>
<clipPath id="clip0_1011_46455">
<rect width="14" height="14" fill="white" transform="translate(7 7)"/>
</clipPath>
</defs>
</svg>
