<svg width="223" height="274" viewBox="0 0 223 274" fill="none" xmlns="http://www.w3.org/2000/svg">
<g opacity="0.532">
<path d="M213.651 272.968H51.5772C50.4607 272.968 49.3551 272.749 48.3236 272.323C47.2921 271.897 46.3548 271.272 45.5654 270.484C44.7761 269.697 44.15 268.762 43.7231 267.733C43.2961 266.704 43.0766 265.601 43.0772 264.487V230.576C43.0769 229.462 43.2967 228.36 43.7237 227.331C44.1508 226.302 44.7769 225.368 45.5663 224.58C46.3556 223.793 47.2927 223.168 48.3241 222.743C49.3555 222.317 50.4609 222.097 51.5772 222.098H163.213V44.0528C163.213 41.8042 164.109 39.6478 165.703 38.0578C167.297 36.4679 169.459 35.5747 171.714 35.5747H213.65C215.904 35.5749 218.066 36.4681 219.66 38.058C221.254 39.648 222.15 41.8043 222.15 44.0528V264.487C222.15 265.601 221.931 266.704 221.504 267.733C221.077 268.761 220.451 269.696 219.662 270.484C218.873 271.271 217.936 271.896 216.904 272.322C215.873 272.749 214.767 272.968 213.651 272.968ZM60.0778 256.011H205.151V52.5314H180.214V230.576C180.215 231.689 179.995 232.792 179.568 233.821C179.141 234.85 178.515 235.784 177.725 236.572C176.936 237.359 175.999 237.984 174.967 238.41C173.936 238.836 172.83 239.055 171.714 239.054H60.0778V256.011Z" fill="#4743AE"/>
<path d="M171.718 239.054H9.64408C8.52758 239.055 7.42198 238.835 6.39045 238.409C5.35892 237.983 4.42169 237.358 3.63231 236.571C2.84293 235.783 2.21688 234.848 1.78993 233.819C1.36298 232.79 1.14351 231.688 1.14404 230.574V68.9209C1.1442 66.6724 2.03979 64.516 3.63382 62.9261C5.22785 61.3362 7.38978 60.4429 9.64408 60.4428H60.0773V10.1393C60.0774 7.89075 60.9731 5.73432 62.5672 4.14439C64.1614 2.55446 66.3235 1.66125 68.5779 1.66125H171.718C173.972 1.66141 176.134 2.55468 177.728 4.1446C179.322 5.73451 180.218 7.89085 180.218 10.1393V230.574C180.218 231.687 179.999 232.79 179.572 233.819C179.145 234.847 178.519 235.782 177.73 236.57C176.941 237.357 176.004 237.981 174.972 238.407C173.941 238.833 172.836 239.052 171.719 239.052L171.718 239.054ZM18.1447 222.098H163.218V18.618H77.0785V68.9209C77.0783 71.1693 76.1828 73.3257 74.5887 74.9156C72.9947 76.5055 70.8328 77.3988 68.5785 77.3989H18.1447V222.098Z" fill="#4743AE"/>
<path d="M9.64467 68.9214L68.5785 10.1399V68.9214H9.64467Z" fill="#4743AE"/>
<path d="M68.5779 77.3996H9.64411C7.96297 77.3999 6.31951 76.9028 4.92165 75.9713C3.52379 75.0398 2.43433 73.7157 1.7911 72.1665C1.14787 70.6173 0.979763 68.9126 1.30805 67.2681C1.63634 65.6235 2.44628 64.1131 3.63539 62.9278L62.5692 4.14684C63.7577 2.96108 65.272 2.15349 66.9207 1.82621C68.5694 1.49893 70.2784 1.66666 71.8315 2.30818C73.3846 2.9497 74.7121 4.0362 75.646 5.43027C76.58 6.82434 77.0785 8.46336 77.0785 10.14V68.9216C77.0784 71.1701 76.1827 73.3266 74.5885 74.9165C72.9944 76.5064 70.8323 77.3996 68.5779 77.3996ZM30.1657 60.4429H60.0779V30.608L30.1657 60.4429Z" fill="#4743AE"/>
<path d="M136.726 106.793H44.6388C42.3843 106.793 40.2223 105.9 38.6281 104.31C37.034 102.72 36.1384 100.563 36.1384 98.3145C36.1384 96.0659 37.034 93.9094 38.6281 92.3194C40.2223 90.7294 42.3843 89.8362 44.6388 89.8362H136.726C138.98 89.8362 141.142 90.7294 142.737 92.3194C144.331 93.9094 145.226 96.0659 145.226 98.3145C145.226 100.563 144.331 102.72 142.737 104.31C141.142 105.9 138.98 106.793 136.726 106.793Z" fill="#4743AE"/>
<path d="M136.726 150.875H44.6388C43.5111 150.893 42.3909 150.688 41.3436 150.271C40.2963 149.853 39.3428 149.232 38.5387 148.443C37.7346 147.654 37.096 146.713 36.66 145.676C36.2241 144.638 35.9996 143.525 35.9996 142.4C35.9996 141.275 36.2241 140.161 36.66 139.123C37.096 138.086 37.7346 137.145 38.5387 136.357C39.3428 135.568 40.2963 134.946 41.3436 134.529C42.3909 134.111 43.5111 133.906 44.6388 133.925H136.726C137.854 133.906 138.974 134.111 140.021 134.529C141.068 134.946 142.022 135.568 142.826 136.357C143.63 137.145 144.269 138.086 144.705 139.123C145.141 140.161 145.365 141.275 145.365 142.4C145.365 143.525 145.141 144.638 144.705 145.676C144.269 146.713 143.63 147.654 142.826 148.443C142.022 149.232 141.068 149.853 140.021 150.271C138.974 150.688 137.854 150.893 136.726 150.875Z" fill="#4743AE"/>
<path d="M136.726 194.967H44.6388C42.3843 194.967 40.2223 194.074 38.6281 192.484C37.034 190.894 36.1384 188.737 36.1384 186.489C36.1384 184.24 37.034 182.084 38.6281 180.494C40.2223 178.904 42.3843 178.01 44.6388 178.01H136.726C138.98 178.01 141.142 178.904 142.737 180.494C144.331 182.084 145.226 184.24 145.226 186.489C145.226 188.737 144.331 190.894 142.737 192.484C141.142 194.074 138.98 194.967 136.726 194.967Z" fill="#4743AE"/>
</g>
</svg>
