<svg width="148" height="35" viewBox="0 0 148 35" fill="none"
  xmlns="http://www.w3.org/2000/svg">
  <path d="M30.2092 7.44444V5.79663H48.4287V7.44444H40.1961V34.5605H38.3784V7.44444H30.2092Z" fill="#209BA8"/>
  <path d="M65.8916 34.5631V25.8489C65.8916 22.928 65.1588 20.6074 63.6932 18.8872C62.2276 17.167 60.2669 16.3069 57.8113 16.3069C56.7292 16.28 55.6535 16.4824 54.6542 16.9009C53.6549 17.3195 52.7542 17.9449 52.0106 18.7365C50.4603 20.3579 49.6835 22.3864 49.6801 24.8219C49.6801 27.2847 50.4468 29.3199 51.9801 30.9277C53.5134 32.5355 55.4597 33.3385 57.8189 33.3368C59.0714 33.3485 60.3099 33.0705 61.4389 32.5244C62.6332 31.9253 63.7006 31.0984 64.5817 30.0898V32.3047C63.6613 33.1557 62.5912 33.8263 61.4262 34.2821C60.2748 34.7242 59.0512 34.9452 57.8189 34.9336C56.4643 34.9468 55.1204 34.6916 53.8637 34.1825C52.658 33.6891 51.5728 32.9387 50.6829 31.9828C49.7909 31.0396 49.0899 29.9307 48.619 28.7179C48.1419 27.4975 47.8989 26.1972 47.9031 24.8858C47.9031 21.9606 48.8373 19.5489 50.6956 17.6533C52.5538 15.7577 54.9046 14.7996 57.7427 14.7996C59.4423 14.7816 61.1172 15.2105 62.6016 16.0438C64.1016 16.9041 65.3589 18.1351 66.2546 19.6204C66.7462 20.4551 67.0946 21.3671 67.2853 22.3182C67.5117 23.5206 67.618 24.7427 67.6026 25.9664V34.5631H65.8916Z" fill="#209BA8"/>
  <path d="M72.7004 34.5632V5.79932H74.3581V18.596C75.0604 17.4185 76.0461 16.438 77.2242 15.7449C78.3896 15.0707 79.7133 14.7232 81.0575 14.7384C83.3778 14.7384 85.2335 15.5048 86.5992 17.0581C87.965 18.6114 88.6606 20.7139 88.6606 23.376V34.5632H86.9953V23.0541C86.9953 21.0741 86.4444 19.457 85.3223 18.2C84.7903 17.5941 84.1327 17.113 83.3958 16.7908C82.6589 16.4686 81.8607 16.313 81.0575 16.3351C80.145 16.3117 79.239 16.4949 78.4063 16.8712C77.5737 17.2475 76.8357 17.8073 76.2469 18.5092C74.9877 19.9415 74.3581 21.775 74.3581 24.0095V34.576L72.7004 34.5632Z" fill="#209BA8"/>
  <path d="M110.37 34.5632V25.8489C110.37 22.928 109.636 20.6074 108.167 18.8872C106.697 17.1679 104.745 16.3069 102.285 16.3069C101.204 16.2797 100.129 16.4819 99.1311 16.9005C98.133 17.3191 97.2337 17.9447 96.4918 18.7365C94.9365 20.3579 94.1597 22.3864 94.1614 24.8219C94.1614 27.2847 94.923 29.32 96.4461 30.9277C97.9845 32.5321 99.9189 33.3369 102.285 33.3369C103.541 33.3471 104.782 33.0692 105.915 32.5245C107.107 31.9262 108.171 31.0992 109.048 30.0898V32.3048C107.212 34.0209 104.791 34.962 102.285 34.9336C100.931 34.9466 99.5881 34.6914 98.3323 34.1825C97.1266 33.6891 96.0414 32.9387 95.1515 31.9829C94.2578 31.0405 93.5558 29.9313 93.0851 28.7179C92.6091 27.4972 92.3662 26.1971 92.3692 24.8858C92.3692 21.9597 93.3 19.5489 95.1616 17.6533C97.0233 15.7577 99.3681 14.8064 102.196 14.7996C103.899 14.7813 105.577 15.2101 107.065 16.0438C108.566 16.9005 109.821 18.1324 110.711 19.6204C111.206 20.453 111.555 21.3658 111.741 22.3182C111.976 23.5264 112.084 24.756 112.064 25.9869V34.5836L110.37 34.5632Z" fill="#209BA8"/>
  <path d="M117.172 34.5632V15.1471H118.834V18.9435C119.54 17.7425 120.54 16.7434 121.738 16.0413C122.949 15.3787 124.31 15.0433 125.688 15.0679C125.826 15.0679 125.975 15.0679 126.151 15.0858C126.326 15.1037 126.559 15.1267 126.836 15.1726V16.7949H126.724C126.085 16.7413 125.658 16.7106 125.455 16.7106C124.556 16.6889 123.664 16.8693 122.844 17.2389C122.023 17.6084 121.295 18.1576 120.713 18.8464C119.471 20.2617 118.844 22.0781 118.844 24.2905V34.5708L117.172 34.5632Z" fill="#209BA8"/>
  <path d="M146.015 34.5633V25.849C146.015 22.9281 145.281 20.6075 143.814 18.8874C142.346 17.1672 140.382 16.3071 137.922 16.3071C136.841 16.2804 135.766 16.483 134.768 16.9016C133.77 17.3201 132.871 17.9454 132.129 18.7366C130.573 20.358 129.795 22.3865 129.793 24.822C129.793 27.2848 130.561 29.3201 132.098 30.9279C133.635 32.5357 135.576 33.3353 137.922 33.3268C139.178 33.339 140.419 33.061 141.552 32.5144C142.746 31.917 143.812 31.0898 144.69 30.0797V32.3049C142.853 34.0217 140.428 34.9596 137.922 34.9235C136.568 34.936 135.225 34.6808 133.969 34.1724C132.765 33.6765 131.68 32.9264 130.788 31.9728C129.899 31.0282 129.199 29.9195 128.727 28.7078C128.251 27.4871 128.01 26.1868 128.016 24.8757C128.016 21.9496 128.947 19.5388 130.809 17.6432C132.67 15.7476 135.016 14.793 137.846 14.7793C139.547 14.7616 141.223 15.1905 142.709 16.0235C144.209 16.8822 145.465 18.1136 146.357 19.6001C146.853 20.4339 147.204 21.3461 147.396 22.2979C147.623 23.507 147.73 24.7361 147.713 25.9666V34.5633H146.015Z" fill="#209BA8"/>
  <path d="M9.56892 2.60059C9.56892 2.60059 2.24762 6.73161 4.15918 19.1809C4.15918 19.1809 5.9108 28.5031 15.032 33.0864C15.032 33.0864 0.671142 29.8393 0.054264 16.2787C0.054264 16.2787 -1.30387 6.28453 9.56892 2.60059Z" fill="#209BA8"/>
  <path d="M17.0452 2.68488C15.7886 2.12794 14.1614 1.86736 12.0543 2.17393C11.1672 2.08252 10.2727 2.25015 9.47766 2.65678C8.96994 2.98123 6.35774 4.78488 4.88281 8.88013C5.36515 8.44072 12.364 2.4294 21.2085 8.51481C20.2492 6.29671 18.8297 4.3107 17.0452 2.68999" fill="#06716A"/>
  <path d="M16.9459 2.60059C16.9459 2.60059 25.6152 9.57505 21.2767 20.9692C21.2767 20.9692 19.817 25.9356 13.7396 29.4535C13.7396 29.4535 24.0945 28.3882 26.1787 16.7794C26.1787 16.7794 28.0979 6.34329 16.9459 2.60059Z" fill="#209BA8"/>
</svg>
